<?xml version="1.0" encoding="UTF-8" standalone="no"?>
<svg
   enable-background="new 0 0 64 64"
   viewBox="0 0 64 64"
   version="1.1"
   id="svg6"
   sodipodi:docname="batterylevel-08.svg"
   inkscape:version="1.4.2 (f4327f4, 2025-05-13)"
   xmlns:inkscape="http://www.inkscape.org/namespaces/inkscape"
   xmlns:sodipodi="http://sodipodi.sourceforge.net/DTD/sodipodi-0.dtd"
   xmlns="http://www.w3.org/2000/svg"
   xmlns:svg="http://www.w3.org/2000/svg">
  <defs
     id="defs6" />
  <sodipodi:namedview
     id="namedview6"
     pagecolor="#ffffff"
     bordercolor="#000000"
     borderopacity="0.25"
     inkscape:showpageshadow="2"
     inkscape:pageopacity="0.0"
     inkscape:pagecheckerboard="0"
     inkscape:deskcolor="#d1d1d1"
     inkscape:zoom="13.640625"
     inkscape:cx="31.963345"
     inkscape:cy="32"
     inkscape:window-width="1920"
     inkscape:window-height="1111"
     inkscape:window-x="-9"
     inkscape:window-y="-9"
     inkscape:window-maximized="1"
     inkscape:current-layer="svg6" />
  <path
     d="m 39.5,7 c 0,0.3 -0.2,0.5 -0.5,0.5 H 25 C 24.7,7.5 24.5,7.3 24.5,7 V 2 c 0,-0.8 0.7,-1.5 1.5,-1.5 h 12 c 0.8,0 1.5,0.7 1.5,1.5 v 5"
     fill="#bebec8"
     id="path1" />
  <path
     d="m 25,2 c 0,-0.6 0.4,-1 1,-1 h 12 c 0.6,0 1,0.4 1,1 V 7 H 25 V 2 m -1,0 v 5 c 0,0.6 0.4,1 1,1 h 14 c 0.6,0 1,-0.4 1,-1 V 2 C 40,0.9 39.1,0 38,0 H 26 c -1.1,0 -2,0.9 -2,2 z"
     fill="#34383f"
     id="path2" />
  <path
     d="m 46.5,61 c 0,1.4 -1.1,2.5 -2.5,2.5 H 20 c -1.4,0 -2.5,-1.1 -2.5,-2.5 V 10 c 0,-1.4 1.1,-2.5 2.5,-2.5 h 24 c 1.4,0 2.5,1.1 2.5,2.5 v 51"
     fill="#f0f0f0"
     id="path3" />
  <path
     d="m 18,10 c 0,-1.1 0.9,-2 2,-2 h 24 c 1.1,0 2,0.9 2,2 v 51 c 0,1.1 -0.9,2 -2,2 H 20 c -1.1,0 -2,-0.9 -2,-2 V 10 m -1,0 v 51 c 0,1.7 1.3,3 3,3 h 24 c 1.7,0 3,-1.3 3,-3 V 10 C 47,8.3 45.7,7 44,7 H 20 c -1.7,0 -3,1.3 -3,3 z"
     fill="#34383f"
     id="path4" />
  <path
     d="m 46,19 v 42 c 0,1.1 -0.9,2 -2,2 H 20 c -1.1,0 -2,-0.9 -2,-2 V 19 h 28"
     fill="#00c83c"
     id="path5" />
  <path
     d="m 18,20 v -1 h 28 v 1 z"
     fill="#00b22a"
     id="path6" />
</svg>
