<?xml version="1.0" encoding="UTF-8" standalone="no"?>
<!-- Created with Inkscape (http://www.inkscape.org/) -->

<svg
   width="126.67031mm"
   height="26.587524mm"
   viewBox="0 0 126.67031 26.587524"
   version="1.1"
   id="svg1"
   inkscape:version="1.4-beta (62f545ba5e, 2024-04-22)"
   sodipodi:docname="openhab_text_light.svg"
   xmlns:inkscape="http://www.inkscape.org/namespaces/inkscape"
   xmlns:sodipodi="http://sodipodi.sourceforge.net/DTD/sodipodi-0.dtd"
   xmlns="http://www.w3.org/2000/svg"
   xmlns:svg="http://www.w3.org/2000/svg">
  <sodipodi:namedview
     id="namedview1"
     pagecolor="#000000"
     bordercolor="#000000"
     borderopacity="0.25"
     inkscape:showpageshadow="2"
     inkscape:pageopacity="0.0"
     inkscape:pagecheckerboard="0"
     inkscape:deskcolor="#d1d1d1"
     inkscape:document-units="mm"
     inkscape:zoom="0.763461"
     inkscape:cx="315.01282"
     inkscape:cy="439.44615"
     inkscape:window-width="1920"
     inkscape:window-height="1111"
     inkscape:window-x="-9"
     inkscape:window-y="-9"
     inkscape:window-maximized="1"
     inkscape:current-layer="layer1" />
  <defs
     id="defs1" />
  <g
     inkscape:label="Layer 1"
     inkscape:groupmode="layer"
     id="layer1"
     transform="translate(-21.50125,-32.077248)">
    <path
       id="hab_1_"
       fill-rule="evenodd"
       clip-rule="evenodd"
       fill="#474747"
       d="m 135.70694,43.32359 v 6.788732 h 4.44365 l 0.26407,-0.0021 0.25425,-0.0049 0.24391,-0.0083 0.23487,-0.01214 0.22454,-0.01474 0.21523,-0.01834 0.20593,-0.02093 0.19508,-0.02429 0.18551,-0.02765 0.17519,-0.02997 0.16588,-0.03359 0.15477,-0.03566 0.14495,-0.0385 0.13385,-0.04031 0.12454,-0.04315 0.11007,-0.04341 0.22272,-0.10361 0.21058,-0.116012 0.19715,-0.127384 0.18603,-0.139785 0.17312,-0.152188 0.1633,-0.16588 0.15218,-0.17906 0.14186,-0.193527 0.12919,-0.203348 0.11059,-0.205671 0.0935,-0.209547 0.076,-0.213167 0.0589,-0.2173 0.0426,-0.222467 0.0246,-0.228409 0.009,-0.232543 -0.0121,-0.288097 -0.0357,-0.275693 -0.0594,-0.265618 -0.0824,-0.255023 -0.10594,-0.247788 -0.13023,-0.239003 -0.15528,-0.233061 -0.17958,-0.224534 -0.20102,-0.211616 -0.22014,-0.194302 -0.23926,-0.178544 -0.25839,-0.160969 -0.27982,-0.144955 -0.29973,-0.128672 -0.32272,-0.111363 -0.34597,-0.09431 -0.11705,-0.02582 -0.13332,-0.02506 -0.14599,-0.02376 -0.1602,-0.02196 -0.17363,-0.02119 -0.18526,-0.01886 -0.19792,-0.0173 -0.21058,-0.01524 -0.22428,-0.01344 -0.23512,-0.01214 -0.24728,-0.01008 -0.25967,-0.0078 -0.27208,-0.0065 -0.28344,-0.0047 -0.29507,-0.0031 -0.30799,-5.3e-4 h -3.09103 z m 0,-8.45013 v 5.518266 h 3.10343 l 0.25166,-0.0016 0.24133,-0.0041 0.23254,-0.008 0.22325,-0.01008 0.21368,-0.01344 0.20567,-0.01627 0.19637,-0.01886 0.18578,-0.0217 0.17751,-0.02455 0.16794,-0.02739 0.15788,-0.02997 0.14753,-0.03255 0.13875,-0.03514 0.12868,-0.03617 0.11808,-0.03927 0.10697,-0.04005 0.21368,-0.09328 0.1974,-0.103611 0.18475,-0.114464 0.17337,-0.12583 0.16149,-0.138234 0.15115,-0.148829 0.14031,-0.162266 0.13022,-0.174408 0.11705,-0.183192 0.10077,-0.186293 0.0845,-0.19172 0.0698,-0.195852 0.054,-0.201023 0.039,-0.20774 0.0235,-0.214715 0.008,-0.219366 -0.0137,-0.295071 -0.0382,-0.271561 -0.0636,-0.249856 -0.0866,-0.230476 -0.11084,-0.214199 -0.13488,-0.197662 -0.16071,-0.185518 -0.18888,-0.174667 -0.0966,-0.07312 -0.10981,-0.07286 -0.11963,-0.06925 -0.12867,-0.06511 -0.13901,-0.06098 -0.14857,-0.05659 -0.1571,-0.05194 -0.16847,-0.04677 -0.17905,-0.04212 -0.18785,-0.03669 -0.1974,-0.031 -0.20877,-0.02609 -0.21756,-0.02066 -0.2266,-0.01394 -0.23797,-0.009 -0.24934,-0.0031 h -4.27623 z m 5.37771,-2.739625 0.26045,0.02585 0.25243,0.02997 0.24469,0.03462 0.23565,0.03979 0.22892,0.04419 0.2204,0.04935 0.21369,0.05504 0.20463,0.05994 0.19793,0.06511 0.19017,0.0708 0.18474,0.07726 0.339,0.163814 0.32556,0.187328 0.30747,0.209547 0.28887,0.229704 0.26975,0.252179 0.25089,0.272852 0.23048,0.292489 0.20851,0.308509 0.0997,0.16433 0.0912,0.163814 0.0855,0.165881 0.0793,0.168984 0.0726,0.170789 0.0667,0.1726 0.0597,0.174924 0.0548,0.17725 0.0465,0.17906 0.0416,0.181125 0.0346,0.182677 0.0284,0.184742 0.0215,0.186553 0.0163,0.187843 0.009,0.190429 0.004,0.19482 -0.0121,0.357601 -0.0331,0.353208 -0.0571,0.345974 -0.0788,0.339514 -0.1018,0.330213 -0.12454,0.322461 -0.14547,0.313933 -0.16846,0.307475 -0.19327,0.296106 -0.2124,0.279829 -0.23409,0.265615 -0.25476,0.250891 -0.27492,0.234868 -0.14341,0.106971 0.26562,0.11653 0.3328,0.163299 0.30928,0.169497 0.28913,0.176993 0.26613,0.184224 0.24573,0.192754 0.22427,0.201023 0.20929,0.209804 0.19741,0.220144 0.18526,0.230476 0.17234,0.240294 0.15993,0.250373 0.14754,0.26045 0.1372,0.271817 0.12067,0.279313 0.10438,0.286028 0.0876,0.291454 0.0731,0.29714 0.055,0.302824 0.0406,0.30825 0.024,0.313418 0.008,0.318069 -0.008,0.321685 -0.0215,0.316 -0.0377,0.310319 -0.0527,0.306181 -0.0677,0.299726 -0.0824,0.293261 -0.0977,0.287838 -0.11265,0.282413 -0.12816,0.274918 -0.14288,0.268976 -0.15736,0.261225 -0.17234,0.255797 -0.18629,0.24779 -0.20051,0.241329 -0.21523,0.234352 -0.22996,0.228669 -0.24469,0.218591 -0.25451,0.203605 -0.26509,0.18991 -0.27466,0.176474 -0.28448,0.161748 -0.29404,0.147021 -0.30334,0.133323 -0.3129,0.119116 -0.32272,0.104386 -0.33021,0.09043 -0.33978,0.07544 -0.34804,0.06253 -0.35682,0.0478 -0.36536,0.03411 -0.37388,0.02043 -0.37852,0.0075 h -8.37856 v -20.98244 h 6.83317 l 0.29817,0.0021 0.29301,0.007 0.28448,0.01085 0.27672,0.01627 0.26821,0.0204 z M 93.758855,32.08009 h 2.926693 v 8.422484 h 9.307182 V 32.08009 h 2.91791 v 20.986575 h -2.91791 v -9.678479 h -9.307182 v 9.678479 h -2.926693 z m 23.606825,13.236659 h 7.12411 l -3.55068,-7.538815 z m 8.43489,2.858741 h -9.75367 l -2.31536,4.884198 h -3.2396 l 9.91645,-20.98244 h 1.0697 l 9.77615,20.98244 h -3.14322 l -0.83638,-1.75545 z"
       style="stroke-width:0.264583;fill:#ffffff;fill-opacity:1" />
    <g
       id="open_1_"
       transform="matrix(0.26458333,0,0,0.26458333,14.425583,-24.858682)">
      <path
         fill-rule="evenodd"
         clip-rule="evenodd"
         fill="#e64a19"
         d="m 57.197754,233.16846 1.65332,0.0391 1.62207,0.1123 1.590821,0.19043 1.55957,0.26661 1.525391,0.34277 1.496093,0.42187 1.459961,0.49805 1.425782,0.57617 1.387695,0.65039 1.353516,0.72852 1.315429,0.80371 1.278321,0.87988 1.239257,0.95313 1.201172,1.02832 1.163086,1.10058 1.128906,1.17871 0.973633,1.12989 0.907227,1.15136 0.84668,1.17969 0.785156,1.20899 0.722656,1.23339 0.661133,1.26172 0.597656,1.28711 0.535157,1.31446 0.471679,1.33789 0.408203,1.3623 0.345703,1.38574 0.283204,1.41114 0.21875,1.43261 0.15625,1.45704 0.09277,1.47656 0.03223,1.5039 -0.03418,1.50196 -0.09961,1.48633 -0.166015,1.46191 -0.232422,1.44434 -0.300781,1.41894 -0.366211,1.39844 -0.433594,1.37402 -0.5,1.35156 -0.568359,1.32618 -0.632813,1.30078 -0.698242,1.27343 -0.764649,1.25 -0.831054,1.22266 -0.893555,1.19727 -0.958008,1.16797 -1.024414,1.14648 -1.083984,1.10352 -1.125977,1.0371 -1.166015,0.9668 -1.205079,0.90039 -1.246093,0.82617 -1.283203,0.75586 -1.32129,0.6836 -1.359375,0.61523 -1.398437,0.53711 -1.432617,0.46875 -1.466797,0.39453 -1.500977,0.32422 -1.538086,0.24805 -1.568359,0.17773 -1.603516,0.10938 -1.634765,0.0352 -1.646485,-0.0352 -1.611328,-0.10742 -1.575195,-0.17969 -1.541992,-0.24805 -1.508789,-0.32422 -1.47168,-0.39453 -1.433594,-0.46875 -1.397461,-0.53711 -1.362304,-0.61523 -1.323243,-0.6836 -1.283203,-0.75586 -1.243164,-0.82812 -1.205078,-0.89844 -1.164062,-0.9668 -1.124024,-1.03906 -1.079101,-1.10156 -1.023438,-1.14648 -0.958984,-1.16797 -0.894532,-1.19727 -0.828125,-1.22266 -0.764648,-1.25 -0.697266,-1.27539 -0.631836,-1.30273 -0.564453,-1.32422 -0.499023,-1.35059 -0.431641,-1.375 -0.365234,-1.39843 -0.298828,-1.41992 -0.231445,-1.44336 -0.16504,-1.46192 -0.09863,-1.48437 -0.03125,-1.50196 0.0293,-1.49609 0.09375,-1.47168 0.15625,-1.45215 0.219726,-1.42773 0.28125,-1.40625 0.344727,-1.38379 0.410156,-1.36035 0.47168,-1.33203 0.533203,-1.31055 0.599609,-1.28418 0.660157,-1.26074 0.724609,-1.23047 0.78418,-1.20606 0.846679,-1.17871 0.908203,-1.15234 0.972657,-1.12695 1.124023,-1.18262 1.163086,-1.1084 1.200195,-1.0332 1.241211,-0.95801 1.277344,-0.88574 1.317383,-0.8086 1.354492,-0.73242 1.389648,-0.6543 1.423829,-0.5791 1.46289,-0.50097 1.495117,-0.42383 1.530274,-0.34375 1.560547,-0.27051 1.594726,-0.19141 1.625977,-0.1123 1.658203,-0.0391 z m 0,10.34277 -1.014648,0.0225 -0.990235,0.0703 -0.969726,0.11719 -0.949219,0.16504 -0.929688,0.20996 -0.908203,0.25781 -0.892578,0.30274 -0.87207,0.35156 -0.858399,0.39649 -0.838867,0.44335 -0.824219,0.49317 -0.808593,0.54199 -0.793946,0.58887 -0.77832,0.64062 -0.763672,0.68848 -0.74707,0.74121 -0.71875,0.77344 -0.666992,0.79004 -0.620118,0.80664 -0.571289,0.82617 -0.526367,0.84375 -0.478516,0.86133 -0.433593,0.8789 -0.386719,0.90137 -0.342774,0.91895 -0.296875,0.93652 -0.25,0.95996 -0.206054,0.9834 -0.16211,1.00293 -0.113281,1.02539 -0.06934,1.0498 -0.02246,1.08008 0.0088,0.68653 0.03223,0.68847 0.05078,0.67871 0.07422,0.67383 0.09375,0.66895 0.114258,0.66211 0.135742,0.65429 0.158203,0.65332 0.175781,0.64453 0.198243,0.64063 0.21875,0.63281 0.240234,0.62793 0.261719,0.62403 0.282226,0.61816 0.303711,0.61328 0.319336,0.59863 0.704102,1.17969 0.754883,1.0957 0.810547,1.02344 0.868164,0.95117 0.924804,0.87891 0.984375,0.8125 1.043946,0.74609 1.11914,0.68555 0.555664,0.30273 0.576172,0.29102 0.583985,0.26953 0.59082,0.25 0.594727,0.23047 0.601562,0.20898 0.610352,0.19141 0.616211,0.16992 0.621093,0.14844 0.632813,0.13086 0.637695,0.11133 0.644531,0.0898 0.651368,0.0703 0.664062,0.0508 0.668945,0.0312 0.676758,0.01 0.683594,-0.01 0.677734,-0.0312 0.670899,-0.0508 0.660156,-0.0703 0.649414,-0.0898 0.644531,-0.11328 0.637696,-0.12891 0.627929,-0.14844 0.616211,-0.16992 0.613282,-0.19141 0.605468,-0.21093 0.598633,-0.22852 0.589844,-0.25 0.585938,-0.26953 0.579101,-0.29102 0.552735,-0.30078 1.100585,-0.68359 1.03418,-0.74414 0.976563,-0.8125 0.917968,-0.88086 0.863282,-0.95313 0.808594,-1.02148 0.752929,-1.09961 0.704102,-1.17773 0.3125,-0.59375 0.302734,-0.61524 0.280274,-0.61816 0.259765,-0.62403 0.237305,-0.6289 0.21875,-0.63477 0.198242,-0.64258 0.175781,-0.64257 0.155274,-0.65235 0.136719,-0.65625 0.113281,-0.66406 0.0957,-0.66797 0.07227,-0.67383 0.05273,-0.68066 0.03223,-0.68848 0.01074,-0.68554 -0.02441,-1.07618 -0.07031,-1.0498 -0.116211,-1.02734 -0.161132,-1.00196 -0.208008,-0.98144 -0.251953,-0.96094 -0.297852,-0.93945 -0.342773,-0.91797 -0.389649,-0.89942 -0.433594,-0.88086 -0.481445,-0.86132 -0.526367,-0.84375 -0.573242,-0.82715 -0.621094,-0.80664 -0.667969,-0.79102 -0.71582,-0.77246 -0.75,-0.74121 -0.763672,-0.68848 -0.779297,-0.64062 -0.792969,-0.58887 -0.80957,-0.54101 -0.824219,-0.49415 -0.838867,-0.44433 -0.855469,-0.39551 -0.874023,-0.35156 -0.890625,-0.30274 -0.90918,-0.25781 -0.925781,-0.20996 -0.947266,-0.16504 -0.966797,-0.11719 -0.988281,-0.0703 -1.007813,-0.0225 z m 165.768556,35.07715 -0.80078,1.40039 -0.83496,1.33203 -0.87012,1.26172 -0.90918,1.19336 -0.94531,1.12305 -0.98438,1.05273 -1.01855,0.97852 -1.04297,0.91015 -1.0752,0.85352 -1.10937,0.79492 -1.1416,0.74219 -1.17578,0.68359 -1.20606,0.62891 -1.24023,0.57031 -1.25977,0.51172 -0.65918,0.24023 -0.65723,0.22071 -0.66894,0.20507 -0.67774,0.18946 -0.68652,0.17578 -0.69629,0.16015 -0.70605,0.14454 -0.7168,0.13086 -0.72656,0.11328 -0.73438,0.0976 -0.74316,0.084 -0.75098,0.0703 -0.76367,0.0527 -0.76953,0.0371 -0.7793,0.0234 -0.79687,0.008 -1.7295,-0.0371 -1.69433,-0.10937 -1.65234,-0.17969 -1.6084,-0.2539 -1.56543,-0.32813 -1.52149,-0.40234 -1.47558,-0.47852 -1.43164,-0.55078 -1.38575,-0.62695 -1.33593,-0.70118 -1.29102,-0.77734 -1.23926,-0.84961 -1.1914,-0.92578 -1.14063,-0.99609 -1.08789,-1.07032 -1.03125,-1.13281 -0.96973,-1.17383 -0.90429,-1.18554 -0.84278,-1.20899 -0.78027,-1.23047 -0.72168,-1.25 -0.6582,-1.27343 -0.59668,-1.29102 -0.53223,-1.31055 -0.47265,-1.33105 -0.40821,-1.35254 -0.3457,-1.36914 -0.28125,-1.38672 -0.21973,-1.40625 -0.15625,-1.42285 -0.0937,-1.43945 -0.0303,-1.45215 0.0254,-1.375 0.0801,-1.35547 0.13183,-1.33887 0.18653,-1.32129 0.2373,-1.30469 0.29395,-1.28613 0.3457,-1.26855 0.40234,-1.24903 0.45215,-1.23047 0.50684,-1.20996 0.55957,-1.19336 0.61426,-1.16992 0.66308,-1.15234 0.7168,-1.13086 0.76953,-1.11133 0.82422,-1.0918 1.08887,-1.33105 1.14746,-1.25293 1.19629,-1.17285 1.24707,-1.08692 1.29492,-1.00293 1.3457,-0.91601 1.3916,-0.83008 1.43946,-0.74121 1.48437,-0.65625 1.53028,-0.56641 1.57324,-0.48047 1.61914,-0.38867 1.65625,-0.30371 1.69922,-0.21582 1.73925,-0.12793 1.7793,-0.0439 1.81836,0.0439 1.77734,0.13184 1.73731,0.2207 1.69629,0.31152 1.6543,0.39747 1.6123,0.49023 1.56934,0.5791 1.52343,0.67188 1.47559,0.75879 1.43066,0.84863 1.38184,0.93652 1.33496,1.02539 1.28418,1.10938 1.23633,1.19824 1.18457,1.28223 1.13281,1.36523 0.77051,1.01953 0.72168,1.05078 0.67383,1.08203 0.62402,1.11524 0.57129,1.14062 0.52441,1.17481 0.47364,1.2041 0.42578,1.23438 0.37304,1.25878 0.3252,1.29004 0.27539,1.31446 0.22656,1.34668 0.17578,1.37109 0.12891,1.40039 0.0791,1.42481 0.0693,3.16406 h -49.54004 l 0.0391,0.49804 0.12598,1.06836 0.16894,1.04102 0.20899,1.00977 0.25195,0.98046 0.29199,0.95411 0.33399,0.92675 0.37207,0.89844 0.41504,0.87109 0.45507,0.84375 0.49903,0.82227 0.53808,0.79492 0.58106,0.77149 0.62305,0.74609 0.66992,0.72656 0.69433,0.68946 0.71387,0.64453 0.73047,0.5957 0.74902,0.55273 0.76758,0.50391 0.78516,0.46289 0.80273,0.41602 0.82422,0.37304 0.84277,0.33008 0.86328,0.28516 0.88575,0.24023 0.9082,0.20117 0.92773,0.1543 0.95215,0.11133 0.97461,0.0684 0.99903,0.0215 0.98242,-0.0215 0.97461,-0.0664 0.96386,-0.10742 0.95704,-0.14844 0.94628,-0.19336 0.94043,-0.23632 0.93457,-0.2793 0.92481,-0.31836 0.90527,-0.36328 0.87891,-0.38867 0.83789,-0.41602 0.80176,-0.43945 0.76269,-0.46485 0.72657,-0.48828 0.68652,-0.51367 0.64844,-0.5332 0.63281,-0.58399 0.6582,-0.67968 0.68457,-0.78125 0.70801,-0.88086 0.73145,-0.98243 0.75195,-1.08398 0.77148,-1.18066 1.6416,-2.65137 8.83497,4.72461 -1.5293,2.93164 z m -11.01074,-26.63379 -0.55762,-0.86621 -0.58594,-0.79004 -0.63672,-0.74121 -0.69238,-0.71192 -0.74219,-0.67871 -0.79492,-0.64355 -0.84863,-0.61035 -0.90137,-0.57422 -0.95898,-0.54004 -1.02442,-0.50879 -0.51465,-0.23047 -0.52441,-0.2207 -0.5293,-0.2041 -0.52734,-0.18848 -0.53418,-0.17383 -0.53516,-0.16015 -0.53808,-0.14258 -0.54297,-0.12891 -0.5459,-0.11426 -0.5459,-0.0986 -0.55078,-0.082 -0.55664,-0.0684 -0.55664,-0.0547 -0.55859,-0.0381 -0.56446,-0.0205 -0.5625,-0.008 -0.9414,0.0195 -0.91407,0.0566 -0.89453,0.0937 -0.875,0.13281 -0.85742,0.16797 -0.83887,0.20898 -0.82129,0.24219 -0.80468,0.28223 -0.79004,0.31543 -0.76856,0.35547 -0.75586,0.39257 -0.73925,0.43165 -0.72657,0.46875 -0.70801,0.50781 -0.69628,0.5459 -0.67872,0.58496 -0.46875,0.44043 -0.4541,0.46875 -0.44238,0.49902 -0.42871,0.52832 -0.41797,0.55469 -0.40234,0.58594 -0.3916,0.61621 -0.37793,0.64843 -0.36622,0.67774 -0.35058,0.70801 -0.33789,0.73828 -0.32324,0.77051 -0.31055,0.80078 -0.15332,0.43261 h 36.52246 l -0.14453,-0.45898 -0.42774,-1.16895 -0.46093,-1.09179 -0.4961,-1.01563 -0.52636,-0.94238 z m -85.24805,-18.78613 1.65332,0.0391 1.62207,0.1123 1.59082,0.19043 1.55957,0.26661 1.52637,0.34277 1.49512,0.42187 1.45996,0.49805 1.42578,0.57617 1.38769,0.65039 1.35352,0.72852 1.31543,0.80371 1.27832,0.87988 1.23926,0.95313 1.20117,1.02832 1.16308,1.10058 1.12891,1.17871 0.97363,1.12989 0.90723,1.15136 0.84668,1.17969 0.78516,1.20899 0.72265,1.23339 0.66113,1.26172 0.59766,1.28711 0.53516,1.31446 0.47168,1.33789 0.4082,1.3623 0.3457,1.38574 0.28321,1.41114 0.21875,1.43261 0.15625,1.45704 0.0928,1.47656 0.0322,1.5039 -0.0342,1.50196 -0.0996,1.48633 -0.16602,1.46191 -0.23242,1.44434 -0.30078,1.41894 -0.36621,1.39844 -0.4336,1.37402 -0.5,1.35156 -0.56836,1.32618 -0.63281,1.30078 -0.69824,1.27343 -0.76465,1.25 -0.83105,1.22266 -0.89356,1.19727 -0.95801,1.16797 -1.02441,1.14648 -1.08398,1.10352 -1.12598,1.0371 -1.16602,0.9668 -1.20507,0.90039 -1.2461,0.82617 -1.2832,0.75586 -1.32129,0.6836 -1.35938,0.61523 -1.39843,0.53711 -1.43262,0.46875 -1.4668,0.39453 -1.50097,0.32422 -1.53809,0.24805 -1.56836,0.17773 -1.60352,0.10938 -1.63476,0.0352 -1.64648,-0.0352 -1.61133,-0.10742 -1.5752,-0.17969 -1.54199,-0.24805 -1.50879,-0.32422 -1.47168,-0.39453 -1.43359,-0.46875 -1.39746,-0.53711 -1.36231,-0.61523 -1.32324,-0.6836 -1.2832,-0.75586 -1.24317,-0.82812 -1.20508,-0.89844 -1.16406,-0.9668 -0.0273,-0.0254 V 315.6792 H 96.258301 v -51.30957 l -0.0059,-0.29688 0.0059,-0.31347 v -0.15918 h 0.0029 l 0.02051,-1.02344 0.09375,-1.47168 0.15625,-1.45215 0.219727,-1.42773 0.28125,-1.40625 0.344727,-1.38379 0.410156,-1.36035 0.471679,-1.33203 0.533204,-1.31055 0.599609,-1.28418 0.660157,-1.26074 0.72461,-1.23047 0.78418,-1.20606 0.84668,-1.17871 0.9082,-1.15234 0.97265,-1.12695 1.12403,-1.18262 1.16308,-1.1084 1.2002,-1.0332 1.24121,-0.95801 1.27734,-0.88574 1.31739,-0.8086 1.35449,-0.73242 1.38965,-0.6543 1.42383,-0.5791 1.46289,-0.50097 1.49511,-0.42383 1.53028,-0.34375 1.56054,-0.27051 1.59473,-0.19141 1.62598,-0.1123 1.6582,-0.0391 z m -19.79492,31.70508 v -1.15137 l 0.0127,-0.6211 0.0693,-1.0498 0.11328,-1.02539 0.16211,-1.00293 0.20605,-0.9834 0.25,-0.95996 0.29688,-0.93652 0.34277,-0.91895 0.38672,-0.90137 0.4336,-0.8789 0.47851,-0.86133 0.52637,-0.84375 0.57129,-0.82617 0.62011,-0.80664 0.667,-0.79004 0.71875,-0.77344 0.74707,-0.74121 0.76367,-0.68848 0.77832,-0.64062 0.79394,-0.58887 0.8086,-0.54199 0.82422,-0.49317 0.83789,-0.44335 0.85937,-0.39649 0.87207,-0.35156 0.89258,-0.30274 0.9082,-0.25781 0.92969,-0.20996 0.94922,-0.16504 0.96973,-0.11719 0.99023,-0.0703 1.01465,-0.0225 1.00781,0.0225 0.98828,0.0703 0.9668,0.11719 0.94727,0.16504 0.92578,0.20996 0.90918,0.25781 0.89062,0.30274 0.87403,0.35156 0.85546,0.39551 0.83887,0.44433 0.82422,0.49415 0.80957,0.54101 0.79297,0.58887 0.7793,0.64062 0.76367,0.68848 0.75,0.74121 0.71582,0.77246 0.66797,0.79102 0.62109,0.80664 0.57324,0.82715 0.52637,0.84375 0.48145,0.86132 0.43359,0.88086 0.38965,0.89942 0.34277,0.91797 0.29785,0.93945 0.25196,0.96094 0.208,0.98144 0.16114,1.00196 0.11621,1.02734 0.0703,1.0498 0.0244,1.07618 -0.0107,0.68554 -0.0322,0.68848 -0.0527,0.68066 -0.0732,0.67383 -0.0947,0.66797 -0.11328,0.66406 -0.13672,0.65625 -0.15527,0.65235 -0.17578,0.64257 -0.19824,0.64258 -0.21875,0.63477 -0.23731,0.6289 -0.25977,0.62403 -0.28027,0.61816 -0.30273,0.61524 -0.3125,0.59375 -0.7041,1.17773 -0.75293,1.09961 -0.8086,1.02148 -0.86328,0.95313 -0.91797,0.88086 -0.97656,0.8125 -1.03418,0.74414 -1.10059,0.68359 -0.55273,0.30078 -0.5791,0.29102 -0.58594,0.26953 -0.58984,0.25 -0.59864,0.22852 -0.60547,0.21093 -0.61328,0.19141 -0.61621,0.16992 -0.62793,0.14844 -0.63769,0.12891 -0.64453,0.11328 -0.64942,0.0898 -0.66015,0.0703 -0.6709,0.0508 -0.67774,0.0312 -0.68359,0.01 -0.67676,-0.01 -0.66894,-0.0312 -0.66407,-0.0508 -0.65136,-0.0703 -0.64453,-0.0898 -0.6377,-0.11133 -0.63281,-0.13086 -0.6211,-0.14844 -0.61621,-0.16992 -0.61035,-0.19141 -0.60156,-0.20898 -0.59473,-0.23047 -0.59082,-0.25 -0.58398,-0.26953 -0.57617,-0.29102 -0.55567,-0.30273 -1.11914,-0.68555 -1.04394,-0.74609 -0.98438,-0.8125 -0.9248,-0.87891 -0.86817,-0.95117 -0.81055,-1.02344 -0.75488,-1.0957 -0.7041,-1.17969 -0.31934,-0.59863 -0.30371,-0.61328 -0.28222,-0.61816 -0.26172,-0.62403 -0.24024,-0.62793 -0.21875,-0.63281 -0.19824,-0.64063 -0.17578,-0.64453 -0.1582,-0.65332 -0.13575,-0.65429 -0.11425,-0.66211 -0.0937,-0.66895 -0.0742,-0.67383 -0.0508,-0.67871 -0.0312,-0.68261 z m 154.28125,-31.61817 c -4.6211,0 -10.78028,1.11328 -14.74121,3.39942 -4.00586,2.31445 -6.90723,5.47753 -8.62598,9.40136 -1.69238,3.8711 -2.51465,9.66797 -2.51465,17.72364 v 30.72558 h 10.45117 v -28.59863 c 0,-6.4209 0.27149,-10.73535 0.80664,-12.8252 0.8086,-3.43164 2.31055,-5.75195 4.59961,-7.12402 2.375,-1.42383 5.1836,-2.60156 10.02149,-2.60156 4.83691,0 7.59082,1.18652 9.96582,2.61035 2.28906,1.37109 3.79101,3.69238 4.59961,7.12402 0.53515,2.08985 0.80664,6.4043 0.80664,12.82422 v 28.59961 h 10.45117 v -30.72559 c 0,-8.05566 -0.82227,-13.85253 -2.51465,-17.72363 -1.71875,-3.92383 -4.62012,-7.08691 -8.62597,-9.40137 -3.96094,-2.28711 -10.0586,-3.4082 -14.67969,-3.4082 z"
         id="path70" />
    </g>
  </g>
</svg>
