<?xml version="1.0" encoding="UTF-8" standalone="no"?>
<svg
   version="1.1"
   x="0px"
   y="0px"
   viewBox="0 0 95 95"
   xml:space="preserve"
   id="svg8"
   sodipodi:docname="cancel.svg"
   width="95"
   height="95"
   inkscape:version="1.4.2 (f4327f4, 2025-05-13)"
   xmlns:inkscape="http://www.inkscape.org/namespaces/inkscape"
   xmlns:sodipodi="http://sodipodi.sourceforge.net/DTD/sodipodi-0.dtd"
   xmlns="http://www.w3.org/2000/svg"
   xmlns:svg="http://www.w3.org/2000/svg"><defs
     id="defs8" /><sodipodi:namedview
     id="namedview8"
     pagecolor="#000000"
     bordercolor="#000000"
     borderopacity="0.25"
     inkscape:showpageshadow="2"
     inkscape:pageopacity="0.0"
     inkscape:pagecheckerboard="0"
     inkscape:deskcolor="#d1d1d1"
     inkscape:zoom="6.808"
     inkscape:cx="47.517626"
     inkscape:cy="60.002938"
     inkscape:window-width="1920"
     inkscape:window-height="1111"
     inkscape:window-x="-9"
     inkscape:window-y="-9"
     inkscape:window-maximized="1"
     inkscape:current-layer="svg8" /><g
     id="g6"
     transform="translate(-2.5,-2.5)"
     style="fill:#9f1c1c;fill-opacity:1"><path
       d="M 50,2.5 C 23.8,2.5 2.5,23.8 2.5,50 2.5,76.2 23.8,97.5 50,97.5 76.2,97.5 97.5,76.2 97.5,50 97.5,23.8 76.2,2.5 50,2.5 Z M 50,91 C 27.4,91 9,72.6 9,50 9,27.4 27.4,9 50,9 72.6,9 91,27.4 91,50 91,72.6 72.6,91 50,91 Z"
       id="path5"
       style="fill:#9f1c1c;fill-opacity:1" /><path
       d="m 67.2,32.8 c -1.3,-1.3 -3.3,-1.3 -4.6,0 L 50,45.4 37.3,32.8 c -1.3,-1.3 -3.3,-1.3 -4.6,0 -1.3,1.3 -1.3,3.3 0,4.6 L 45.4,50 32.8,62.7 c -1.3,1.3 -1.3,3.3 0,4.6 0.6,0.6 1.5,0.9 2.3,0.9 0.8,0 1.7,-0.3 2.3,-0.9 L 50,54.6 62.7,67.3 c 0.6,0.6 1.5,0.9 2.3,0.9 0.8,0 1.7,-0.3 2.3,-0.9 1.3,-1.3 1.3,-3.3 0,-4.6 L 54.6,50 67.3,37.3 c 1.2,-1.2 1.2,-3.3 -0.1,-4.5 z"
       id="path6"
       style="fill:#9f1c1c;fill-opacity:1" /></g></svg>
