<?xml version="1.0" encoding="UTF-8" standalone="no"?>
<svg
   version="1.1"
   x="0px"
   y="0px"
   viewBox="0 0 112.676 112.676"
   xml:space="preserve"
   id="svg12"
   sodipodi:docname="light-bulb-off.svg"
   width="112.676"
   height="112.676"
   inkscape:version="1.4-beta (62f545ba5e, 2024-04-22)"
   xmlns:inkscape="http://www.inkscape.org/namespaces/inkscape"
   xmlns:sodipodi="http://sodipodi.sourceforge.net/DTD/sodipodi-0.dtd"
   xmlns="http://www.w3.org/2000/svg"
   xmlns:svg="http://www.w3.org/2000/svg"><defs
     id="defs12" /><sodipodi:namedview
     id="namedview12"
     pagecolor="#000000"
     bordercolor="#000000"
     borderopacity="0.25"
     inkscape:showpageshadow="2"
     inkscape:pageopacity="0.0"
     inkscape:pagecheckerboard="0"
     inkscape:deskcolor="#d1d1d1"
     inkscape:zoom="6.856"
     inkscape:cx="49.956243"
     inkscape:cy="55.06126"
     inkscape:window-width="1920"
     inkscape:window-height="1111"
     inkscape:window-x="-9"
     inkscape:window-y="-9"
     inkscape:window-maximized="1"
     inkscape:current-layer="svg12" /><path
     d="m 58.479601,17.05738 c -7.35408,-0.30642 -14.40174,2.24708 -19.71302,7.35408 -5.31128,5.107 -8.27334,11.95038 -8.27334,19.30446 0,6.02626 1.94066,11.7461 5.71984,16.54668 3.26848,4.18774 5.51556,8.1712 6.94552,12.35894 l 0.10214,0.30642 v 10.7247 c 0,1.32782 1.0214,2.5535 2.34922,2.75778 0.5107,5.92412 5.51556,10.62256 11.64396,10.62256 6.1284,0 11.13326,-4.69844 11.64396,-10.7247 1.32782,-0.20428 2.34922,-1.32782 2.34922,-2.75778 V 72.92796 l 0.10214,-0.30642 c 1.42996,-4.18774 3.67704,-8.1712 6.94552,-12.2568 3.98346,-5.00486 6.02626,-11.33754 5.71984,-17.67022 -0.71498,-13.7889 -11.84824,-25.0243 -25.535,-25.63714 z m 7.1498,56.99412 v 6.74124 H 48.878441 V 74.0515 Z m -8.37548,17.3638 c -3.0642,0 -5.51556,-2.24708 -6.02626,-5.107 h 12.05252 c -0.5107,2.96206 -2.96206,5.107 -6.02626,5.107 z m 16.54668,-34.62546 c -3.0642,3.88132 -5.31128,7.6605 -6.94552,11.64396 h -19.20232 c -1.63424,-3.88132 -3.88132,-7.76264 -6.94552,-11.64396 -2.96206,-3.77918 -4.49416,-8.27334 -4.49416,-13.07392 0,-5.82198 2.34922,-11.2354 6.53696,-15.321 4.18774,-3.98346 9.7033,-6.1284 15.62742,-5.82198 10.82684,0.5107 19.61088,9.39688 20.12158,20.12158 0.10214,5.20914 -1.5321,10.11186 -4.69844,14.09532 z"
     id="path1"
     style="fill:#ffffff;fill-opacity:1;stroke-width:1.0214" /></svg>
