<?xml version="1.0" encoding="UTF-8" standalone="no"?>
<!-- Created with Inkscape (http://www.inkscape.org/) -->

<svg
   width="126.67031mm"
   height="26.587524mm"
   viewBox="0 0 126.67031 26.587524"
   version="1.1"
   id="svg1"
   inkscape:version="1.4-beta (62f545ba5e, 2024-04-22)"
   sodipodi:docname="openhab_text.svg"
   xmlns:inkscape="http://www.inkscape.org/namespaces/inkscape"
   xmlns:sodipodi="http://sodipodi.sourceforge.net/DTD/sodipodi-0.dtd"
   xmlns="http://www.w3.org/2000/svg"
   xmlns:svg="http://www.w3.org/2000/svg">
  <sodipodi:namedview
     id="namedview1"
     pagecolor="#ffffff"
     bordercolor="#000000"
     borderopacity="0.25"
     inkscape:showpageshadow="2"
     inkscape:pageopacity="0.0"
     inkscape:pagecheckerboard="0"
     inkscape:deskcolor="#d1d1d1"
     inkscape:document-units="mm"
     inkscape:zoom="0.763461"
     inkscape:cx="315.01282"
     inkscape:cy="439.44615"
     inkscape:window-width="1920"
     inkscape:window-height="1111"
     inkscape:window-x="-9"
     inkscape:window-y="-9"
     inkscape:window-maximized="1"
     inkscape:current-layer="layer1" />
  <defs
     id="defs1" />
  <g
     inkscape:label="Layer 1"
     inkscape:groupmode="layer"
     id="layer1"
     transform="translate(-21.50125,-32.077248)">
    <g
       id="lettering"
       transform="matrix(0.26458333,0,0,0.26458333,14.425583,-24.858682)">
		<path
   id="hab_1_"
   fill-rule="evenodd"
   clip-rule="evenodd"
   fill="#474747"
   d="m 458.38623,257.69678 v 25.6582 h 16.79492 l 0.99805,-0.008 0.96094,-0.0186 0.92187,-0.0312 0.8877,-0.0459 0.84863,-0.0557 0.81348,-0.0693 0.77832,-0.0791 0.7373,-0.0918 0.70117,-0.1045 0.66211,-0.11328 0.62696,-0.12695 0.58496,-0.13477 0.54785,-0.1455 0.50586,-0.15235 0.4707,-0.16308 0.41602,-0.16407 0.84179,-0.3916 0.7959,-0.43847 0.74512,-0.48145 0.70312,-0.52832 0.6543,-0.5752 0.61719,-0.62695 0.57519,-0.67676 0.53614,-0.73144 0.48828,-0.76856 0.41797,-0.77734 0.35351,-0.79199 0.28711,-0.80567 0.22266,-0.82129 0.16113,-0.84082 0.0928,-0.86328 0.0342,-0.8789 -0.0459,-1.08887 -0.13477,-1.04199 -0.22461,-1.00391 -0.31152,-0.96387 -0.40039,-0.93652 -0.49219,-0.90332 -0.58692,-0.88086 -0.67871,-0.84863 -0.75976,-0.79981 -0.83203,-0.73437 -0.9043,-0.67481 -0.97656,-0.60839 -1.05762,-0.54786 -1.13281,-0.48632 -1.21973,-0.4209 -1.30762,-0.35645 -0.44238,-0.0976 -0.5039,-0.0947 -0.55176,-0.0898 -0.60547,-0.083 -0.65625,-0.0801 -0.7002,-0.0713 -0.74804,-0.0654 -0.7959,-0.0576 -0.84766,-0.0508 -0.88867,-0.0459 -0.93457,-0.0381 -0.98145,-0.0293 -1.02832,-0.0244 -1.07129,-0.0176 -1.11523,-0.0117 -1.16406,-0.002 h -11.68262 z m 0,-31.9375 v 20.85644 h 11.72949 l 0.95117,-0.006 0.91211,-0.0156 0.87891,-0.0303 0.84375,-0.0381 0.80762,-0.0508 0.77734,-0.0615 0.74219,-0.0713 0.70215,-0.082 0.6709,-0.0928 0.63476,-0.10352 0.59668,-0.11328 0.55762,-0.12304 0.52441,-0.13282 0.48633,-0.13671 0.44629,-0.14844 0.4043,-0.15137 0.80761,-0.35254 0.7461,-0.3916 0.69824,-0.43262 0.65527,-0.47558 0.61035,-0.52246 0.57129,-0.5625 0.53028,-0.61329 0.49218,-0.65918 0.44239,-0.69238 0.38086,-0.7041 0.31933,-0.72461 0.26367,-0.74023 0.20411,-0.75977 0.14746,-0.78516 0.0889,-0.81152 0.0303,-0.8291 -0.0518,-1.11523 -0.14453,-1.02637 -0.24024,-0.94434 -0.32714,-0.87109 -0.41895,-0.80957 -0.50977,-0.74707 -0.60742,-0.70117 -0.71386,-0.66016 -0.36524,-0.27637 -0.41504,-0.27539 -0.45215,-0.26172 -0.48632,-0.24609 -0.52539,-0.23047 -0.56153,-0.21387 -0.59375,-0.19629 -0.63672,-0.17675 -0.67675,-0.15918 -0.70997,-0.13868 -0.74609,-0.11718 -0.78906,-0.0986 -0.82227,-0.0781 -0.85644,-0.0527 -0.89942,-0.0342 -0.94238,-0.0117 h -16.16211 z m 20.3252,-10.35449 0.98437,0.0977 0.9541,0.11328 0.92481,0.13086 0.89062,0.15039 0.86524,0.167 0.833,0.18652 0.80762,0.20801 0.77344,0.22656 0.74805,0.24609 0.71875,0.26758 0.69824,0.29199 1.28125,0.61914 1.23047,0.70801 1.16211,0.79199 1.09179,0.86817 1.01953,0.95312 0.94825,1.03125 0.87109,1.10547 0.78809,1.16602 0.37695,0.62109 0.34473,0.61914 0.32324,0.62695 0.2998,0.63868 0.27442,0.6455 0.25195,0.65235 0.22559,0.66113 0.20703,0.66992 0.17578,0.67676 0.15723,0.68457 0.13085,0.69043 0.10743,0.69824 0.0811,0.70508 0.0615,0.70996 0.0332,0.71973 0.0166,0.73633 -0.0459,1.35156 -0.125,1.33496 -0.21582,1.30762 -0.29785,1.2832 -0.38477,1.24805 -0.4707,1.21875 -0.5498,1.18652 -0.63672,1.16211 -0.73047,1.11914 -0.80274,1.05762 -0.88476,1.0039 -0.96289,0.94825 -1.03907,0.88769 -0.54199,0.4043 1.00391,0.44043 1.25781,0.61719 1.16895,0.64062 1.09277,0.66895 1.00586,0.69628 0.92871,0.72852 0.84766,0.75977 0.79101,0.79296 0.7461,0.83204 0.70019,0.87109 0.65137,0.9082 0.60449,0.94629 0.55762,0.98438 0.51855,1.02734 0.45606,1.05567 0.39453,1.08105 0.33105,1.10156 0.27637,1.12305 0.20801,1.14453 0.15332,1.16504 0.0908,1.18457 0.0303,1.20215 -0.0303,1.21582 -0.0811,1.19433 -0.14257,1.17286 -0.19922,1.15722 -0.25586,1.13282 -0.31153,1.10839 -0.36914,1.08789 -0.42578,1.06739 -0.48437,1.03906 -0.54004,1.0166 -0.59473,0.98731 -0.65137,0.96679 -0.7041,0.93653 -0.75781,0.91211 -0.81348,0.88574 -0.86914,0.86426 -0.9248,0.82617 -0.96192,0.76953 -1.00195,0.71777 -1.03808,0.66699 -1.0752,0.61133 -1.11133,0.55567 -1.14648,0.5039 -1.18262,0.4502 -1.21973,0.39453 -1.24804,0.3418 -1.28418,0.28515 -1.31543,0.23633 -1.34863,0.18066 -1.38086,0.12891 -1.41309,0.0772 -1.43066,0.0283 h -31.667 V 215.191 h 25.82618 l 1.12695,0.008 1.10742,0.0264 1.0752,0.041 1.04589,0.0615 1.01368,0.0771 z m -178.86914,-0.20313 h 11.06152 v 31.83301 h 35.17676 v -31.83301 h 11.02832 V 294.521 H 346.08057 V 257.94092 H 310.90381 V 294.521 h -11.06152 z m 89.22265,50.02832 h 26.92578 L 402.5708,236.73682 Z m 31.87988,10.80469 h -36.86425 l -8.75098,18.45996 h -12.24414 l 37.47949,-79.30371 h 4.04297 l 36.94922,79.30371 h -11.87988 l -3.16114,-6.63477 z" />

		<g
   id="open_1_">
			<path
   fill-rule="evenodd"
   clip-rule="evenodd"
   fill="#e64a19"
   d="m 57.197754,233.16846 1.65332,0.0391 1.62207,0.1123 1.590821,0.19043 1.55957,0.26661 1.525391,0.34277 1.496093,0.42187 1.459961,0.49805 1.425782,0.57617 1.387695,0.65039 1.353516,0.72852 1.315429,0.80371 1.278321,0.87988 1.239257,0.95313 1.201172,1.02832 1.163086,1.10058 1.128906,1.17871 0.973633,1.12989 0.907227,1.15136 0.84668,1.17969 0.785156,1.20899 0.722656,1.23339 0.661133,1.26172 0.597656,1.28711 0.535157,1.31446 0.471679,1.33789 0.408203,1.3623 0.345703,1.38574 0.283204,1.41114 0.21875,1.43261 0.15625,1.45704 0.09277,1.47656 0.03223,1.5039 -0.03418,1.50196 -0.09961,1.48633 -0.166015,1.46191 -0.232422,1.44434 -0.300781,1.41894 -0.366211,1.39844 -0.433594,1.37402 -0.5,1.35156 -0.568359,1.32618 -0.632813,1.30078 -0.698242,1.27343 -0.764649,1.25 -0.831054,1.22266 -0.893555,1.19727 -0.958008,1.16797 -1.024414,1.14648 -1.083984,1.10352 -1.125977,1.0371 -1.166015,0.9668 -1.205079,0.90039 -1.246093,0.82617 -1.283203,0.75586 -1.32129,0.6836 -1.359375,0.61523 -1.398437,0.53711 -1.432617,0.46875 -1.466797,0.39453 -1.500977,0.32422 -1.538086,0.24805 -1.568359,0.17773 -1.603516,0.10938 -1.634765,0.0352 -1.646485,-0.0352 -1.611328,-0.10742 -1.575195,-0.17969 -1.541992,-0.24805 -1.508789,-0.32422 -1.47168,-0.39453 -1.433594,-0.46875 -1.397461,-0.53711 -1.362304,-0.61523 -1.323243,-0.6836 -1.283203,-0.75586 -1.243164,-0.82812 -1.205078,-0.89844 -1.164062,-0.9668 -1.124024,-1.03906 -1.079101,-1.10156 -1.023438,-1.14648 -0.958984,-1.16797 -0.894532,-1.19727 -0.828125,-1.22266 -0.764648,-1.25 -0.697266,-1.27539 -0.631836,-1.30273 -0.564453,-1.32422 -0.499023,-1.35059 -0.431641,-1.375 -0.365234,-1.39843 -0.298828,-1.41992 -0.231445,-1.44336 -0.16504,-1.46192 -0.09863,-1.48437 -0.03125,-1.50196 0.0293,-1.49609 0.09375,-1.47168 0.15625,-1.45215 0.219726,-1.42773 0.28125,-1.40625 0.344727,-1.38379 0.410156,-1.36035 0.47168,-1.33203 0.533203,-1.31055 0.599609,-1.28418 0.660157,-1.26074 0.724609,-1.23047 0.78418,-1.20606 0.846679,-1.17871 0.908203,-1.15234 0.972657,-1.12695 1.124023,-1.18262 1.163086,-1.1084 1.200195,-1.0332 1.241211,-0.95801 1.277344,-0.88574 1.317383,-0.8086 1.354492,-0.73242 1.389648,-0.6543 1.423829,-0.5791 1.46289,-0.50097 1.495117,-0.42383 1.530274,-0.34375 1.560547,-0.27051 1.594726,-0.19141 1.625977,-0.1123 1.658203,-0.0391 z m 0,10.34277 -1.014648,0.0225 -0.990235,0.0703 -0.969726,0.11719 -0.949219,0.16504 -0.929688,0.20996 -0.908203,0.25781 -0.892578,0.30274 -0.87207,0.35156 -0.858399,0.39649 -0.838867,0.44335 -0.824219,0.49317 -0.808593,0.54199 -0.793946,0.58887 -0.77832,0.64062 -0.763672,0.68848 -0.74707,0.74121 -0.71875,0.77344 -0.666992,0.79004 -0.620118,0.80664 -0.571289,0.82617 -0.526367,0.84375 -0.478516,0.86133 -0.433593,0.8789 -0.386719,0.90137 -0.342774,0.91895 -0.296875,0.93652 -0.25,0.95996 -0.206054,0.9834 -0.16211,1.00293 -0.113281,1.02539 -0.06934,1.0498 -0.02246,1.08008 0.0088,0.68653 0.03223,0.68847 0.05078,0.67871 0.07422,0.67383 0.09375,0.66895 0.114258,0.66211 0.135742,0.65429 0.158203,0.65332 0.175781,0.64453 0.198243,0.64063 0.21875,0.63281 0.240234,0.62793 0.261719,0.62403 0.282226,0.61816 0.303711,0.61328 0.319336,0.59863 0.704102,1.17969 0.754883,1.0957 0.810547,1.02344 0.868164,0.95117 0.924804,0.87891 0.984375,0.8125 1.043946,0.74609 1.11914,0.68555 0.555664,0.30273 0.576172,0.29102 0.583985,0.26953 0.59082,0.25 0.594727,0.23047 0.601562,0.20898 0.610352,0.19141 0.616211,0.16992 0.621093,0.14844 0.632813,0.13086 0.637695,0.11133 0.644531,0.0898 0.651368,0.0703 0.664062,0.0508 0.668945,0.0312 0.676758,0.01 0.683594,-0.01 0.677734,-0.0312 0.670899,-0.0508 0.660156,-0.0703 0.649414,-0.0898 0.644531,-0.11328 0.637696,-0.12891 0.627929,-0.14844 0.616211,-0.16992 0.613282,-0.19141 0.605468,-0.21093 0.598633,-0.22852 0.589844,-0.25 0.585938,-0.26953 0.579101,-0.29102 0.552735,-0.30078 1.100585,-0.68359 1.03418,-0.74414 0.976563,-0.8125 0.917968,-0.88086 0.863282,-0.95313 0.808594,-1.02148 0.752929,-1.09961 0.704102,-1.17773 0.3125,-0.59375 0.302734,-0.61524 0.280274,-0.61816 0.259765,-0.62403 0.237305,-0.6289 0.21875,-0.63477 0.198242,-0.64258 0.175781,-0.64257 0.155274,-0.65235 0.136719,-0.65625 0.113281,-0.66406 0.0957,-0.66797 0.07227,-0.67383 0.05273,-0.68066 0.03223,-0.68848 0.01074,-0.68554 -0.02441,-1.07618 -0.07031,-1.0498 -0.116211,-1.02734 -0.161132,-1.00196 -0.208008,-0.98144 -0.251953,-0.96094 -0.297852,-0.93945 -0.342773,-0.91797 -0.389649,-0.89942 -0.433594,-0.88086 -0.481445,-0.86132 -0.526367,-0.84375 -0.573242,-0.82715 -0.621094,-0.80664 -0.667969,-0.79102 -0.71582,-0.77246 -0.75,-0.74121 -0.763672,-0.68848 -0.779297,-0.64062 -0.792969,-0.58887 -0.80957,-0.54101 -0.824219,-0.49415 -0.838867,-0.44433 -0.855469,-0.39551 -0.874023,-0.35156 -0.890625,-0.30274 -0.90918,-0.25781 -0.925781,-0.20996 -0.947266,-0.16504 -0.966797,-0.11719 -0.988281,-0.0703 -1.007813,-0.0225 z m 165.768556,35.07715 -0.80078,1.40039 -0.83496,1.33203 -0.87012,1.26172 -0.90918,1.19336 -0.94531,1.12305 -0.98438,1.05273 -1.01855,0.97852 -1.04297,0.91015 -1.0752,0.85352 -1.10937,0.79492 -1.1416,0.74219 -1.17578,0.68359 -1.20606,0.62891 -1.24023,0.57031 -1.25977,0.51172 -0.65918,0.24023 -0.65723,0.22071 -0.66894,0.20507 -0.67774,0.18946 -0.68652,0.17578 -0.69629,0.16015 -0.70605,0.14454 -0.7168,0.13086 -0.72656,0.11328 -0.73438,0.0976 -0.74316,0.084 -0.75098,0.0703 -0.76367,0.0527 -0.76953,0.0371 -0.7793,0.0234 -0.79687,0.008 -1.7295,-0.0371 -1.69433,-0.10937 -1.65234,-0.17969 -1.6084,-0.2539 -1.56543,-0.32813 -1.52149,-0.40234 -1.47558,-0.47852 -1.43164,-0.55078 -1.38575,-0.62695 -1.33593,-0.70118 -1.29102,-0.77734 -1.23926,-0.84961 -1.1914,-0.92578 -1.14063,-0.99609 -1.08789,-1.07032 -1.03125,-1.13281 -0.96973,-1.17383 -0.90429,-1.18554 -0.84278,-1.20899 -0.78027,-1.23047 -0.72168,-1.25 -0.6582,-1.27343 -0.59668,-1.29102 -0.53223,-1.31055 -0.47265,-1.33105 -0.40821,-1.35254 -0.3457,-1.36914 -0.28125,-1.38672 -0.21973,-1.40625 -0.15625,-1.42285 -0.0937,-1.43945 -0.0303,-1.45215 0.0254,-1.375 0.0801,-1.35547 0.13183,-1.33887 0.18653,-1.32129 0.2373,-1.30469 0.29395,-1.28613 0.3457,-1.26855 0.40234,-1.24903 0.45215,-1.23047 0.50684,-1.20996 0.55957,-1.19336 0.61426,-1.16992 0.66308,-1.15234 0.7168,-1.13086 0.76953,-1.11133 0.82422,-1.0918 1.08887,-1.33105 1.14746,-1.25293 1.19629,-1.17285 1.24707,-1.08692 1.29492,-1.00293 1.3457,-0.91601 1.3916,-0.83008 1.43946,-0.74121 1.48437,-0.65625 1.53028,-0.56641 1.57324,-0.48047 1.61914,-0.38867 1.65625,-0.30371 1.69922,-0.21582 1.73925,-0.12793 1.7793,-0.0439 1.81836,0.0439 1.77734,0.13184 1.73731,0.2207 1.69629,0.31152 1.6543,0.39747 1.6123,0.49023 1.56934,0.5791 1.52343,0.67188 1.47559,0.75879 1.43066,0.84863 1.38184,0.93652 1.33496,1.02539 1.28418,1.10938 1.23633,1.19824 1.18457,1.28223 1.13281,1.36523 0.77051,1.01953 0.72168,1.05078 0.67383,1.08203 0.62402,1.11524 0.57129,1.14062 0.52441,1.17481 0.47364,1.2041 0.42578,1.23438 0.37304,1.25878 0.3252,1.29004 0.27539,1.31446 0.22656,1.34668 0.17578,1.37109 0.12891,1.40039 0.0791,1.42481 0.0693,3.16406 h -49.54004 l 0.0391,0.49804 0.12598,1.06836 0.16894,1.04102 0.20899,1.00977 0.25195,0.98046 0.29199,0.95411 0.33399,0.92675 0.37207,0.89844 0.41504,0.87109 0.45507,0.84375 0.49903,0.82227 0.53808,0.79492 0.58106,0.77149 0.62305,0.74609 0.66992,0.72656 0.69433,0.68946 0.71387,0.64453 0.73047,0.5957 0.74902,0.55273 0.76758,0.50391 0.78516,0.46289 0.80273,0.41602 0.82422,0.37304 0.84277,0.33008 0.86328,0.28516 0.88575,0.24023 0.9082,0.20117 0.92773,0.1543 0.95215,0.11133 0.97461,0.0684 0.99903,0.0215 0.98242,-0.0215 0.97461,-0.0664 0.96386,-0.10742 0.95704,-0.14844 0.94628,-0.19336 0.94043,-0.23632 0.93457,-0.2793 0.92481,-0.31836 0.90527,-0.36328 0.87891,-0.38867 0.83789,-0.41602 0.80176,-0.43945 0.76269,-0.46485 0.72657,-0.48828 0.68652,-0.51367 0.64844,-0.5332 0.63281,-0.58399 0.6582,-0.67968 0.68457,-0.78125 0.70801,-0.88086 0.73145,-0.98243 0.75195,-1.08398 0.77148,-1.18066 1.6416,-2.65137 8.83497,4.72461 -1.5293,2.93164 z m -11.01074,-26.63379 -0.55762,-0.86621 -0.58594,-0.79004 -0.63672,-0.74121 -0.69238,-0.71192 -0.74219,-0.67871 -0.79492,-0.64355 -0.84863,-0.61035 -0.90137,-0.57422 -0.95898,-0.54004 -1.02442,-0.50879 -0.51465,-0.23047 -0.52441,-0.2207 -0.5293,-0.2041 -0.52734,-0.18848 -0.53418,-0.17383 -0.53516,-0.16015 -0.53808,-0.14258 -0.54297,-0.12891 -0.5459,-0.11426 -0.5459,-0.0986 -0.55078,-0.082 -0.55664,-0.0684 -0.55664,-0.0547 -0.55859,-0.0381 -0.56446,-0.0205 -0.5625,-0.008 -0.9414,0.0195 -0.91407,0.0566 -0.89453,0.0937 -0.875,0.13281 -0.85742,0.16797 -0.83887,0.20898 -0.82129,0.24219 -0.80468,0.28223 -0.79004,0.31543 -0.76856,0.35547 -0.75586,0.39257 -0.73925,0.43165 -0.72657,0.46875 -0.70801,0.50781 -0.69628,0.5459 -0.67872,0.58496 -0.46875,0.44043 -0.4541,0.46875 -0.44238,0.49902 -0.42871,0.52832 -0.41797,0.55469 -0.40234,0.58594 -0.3916,0.61621 -0.37793,0.64843 -0.36622,0.67774 -0.35058,0.70801 -0.33789,0.73828 -0.32324,0.77051 -0.31055,0.80078 -0.15332,0.43261 h 36.52246 l -0.14453,-0.45898 -0.42774,-1.16895 -0.46093,-1.09179 -0.4961,-1.01563 -0.52636,-0.94238 z m -85.24805,-18.78613 1.65332,0.0391 1.62207,0.1123 1.59082,0.19043 1.55957,0.26661 1.52637,0.34277 1.49512,0.42187 1.45996,0.49805 1.42578,0.57617 1.38769,0.65039 1.35352,0.72852 1.31543,0.80371 1.27832,0.87988 1.23926,0.95313 1.20117,1.02832 1.16308,1.10058 1.12891,1.17871 0.97363,1.12989 0.90723,1.15136 0.84668,1.17969 0.78516,1.20899 0.72265,1.23339 0.66113,1.26172 0.59766,1.28711 0.53516,1.31446 0.47168,1.33789 0.4082,1.3623 0.3457,1.38574 0.28321,1.41114 0.21875,1.43261 0.15625,1.45704 0.0928,1.47656 0.0322,1.5039 -0.0342,1.50196 -0.0996,1.48633 -0.16602,1.46191 -0.23242,1.44434 -0.30078,1.41894 -0.36621,1.39844 -0.4336,1.37402 -0.5,1.35156 -0.56836,1.32618 -0.63281,1.30078 -0.69824,1.27343 -0.76465,1.25 -0.83105,1.22266 -0.89356,1.19727 -0.95801,1.16797 -1.02441,1.14648 -1.08398,1.10352 -1.12598,1.0371 -1.16602,0.9668 -1.20507,0.90039 -1.2461,0.82617 -1.2832,0.75586 -1.32129,0.6836 -1.35938,0.61523 -1.39843,0.53711 -1.43262,0.46875 -1.4668,0.39453 -1.50097,0.32422 -1.53809,0.24805 -1.56836,0.17773 -1.60352,0.10938 -1.63476,0.0352 -1.64648,-0.0352 -1.61133,-0.10742 -1.5752,-0.17969 -1.54199,-0.24805 -1.50879,-0.32422 -1.47168,-0.39453 -1.43359,-0.46875 -1.39746,-0.53711 -1.36231,-0.61523 -1.32324,-0.6836 -1.2832,-0.75586 -1.24317,-0.82812 -1.20508,-0.89844 -1.16406,-0.9668 -0.0273,-0.0254 V 315.6792 H 96.258301 v -51.30957 l -0.0059,-0.29688 0.0059,-0.31347 v -0.15918 h 0.0029 l 0.02051,-1.02344 0.09375,-1.47168 0.15625,-1.45215 0.219727,-1.42773 0.28125,-1.40625 0.344727,-1.38379 0.410156,-1.36035 0.471679,-1.33203 0.533204,-1.31055 0.599609,-1.28418 0.660157,-1.26074 0.72461,-1.23047 0.78418,-1.20606 0.84668,-1.17871 0.9082,-1.15234 0.97265,-1.12695 1.12403,-1.18262 1.16308,-1.1084 1.2002,-1.0332 1.24121,-0.95801 1.27734,-0.88574 1.31739,-0.8086 1.35449,-0.73242 1.38965,-0.6543 1.42383,-0.5791 1.46289,-0.50097 1.49511,-0.42383 1.53028,-0.34375 1.56054,-0.27051 1.59473,-0.19141 1.62598,-0.1123 1.6582,-0.0391 z m -19.79492,31.70508 v -1.15137 l 0.0127,-0.6211 0.0693,-1.0498 0.11328,-1.02539 0.16211,-1.00293 0.20605,-0.9834 0.25,-0.95996 0.29688,-0.93652 0.34277,-0.91895 0.38672,-0.90137 0.4336,-0.8789 0.47851,-0.86133 0.52637,-0.84375 0.57129,-0.82617 0.62011,-0.80664 0.667,-0.79004 0.71875,-0.77344 0.74707,-0.74121 0.76367,-0.68848 0.77832,-0.64062 0.79394,-0.58887 0.8086,-0.54199 0.82422,-0.49317 0.83789,-0.44335 0.85937,-0.39649 0.87207,-0.35156 0.89258,-0.30274 0.9082,-0.25781 0.92969,-0.20996 0.94922,-0.16504 0.96973,-0.11719 0.99023,-0.0703 1.01465,-0.0225 1.00781,0.0225 0.98828,0.0703 0.9668,0.11719 0.94727,0.16504 0.92578,0.20996 0.90918,0.25781 0.89062,0.30274 0.87403,0.35156 0.85546,0.39551 0.83887,0.44433 0.82422,0.49415 0.80957,0.54101 0.79297,0.58887 0.7793,0.64062 0.76367,0.68848 0.75,0.74121 0.71582,0.77246 0.66797,0.79102 0.62109,0.80664 0.57324,0.82715 0.52637,0.84375 0.48145,0.86132 0.43359,0.88086 0.38965,0.89942 0.34277,0.91797 0.29785,0.93945 0.25196,0.96094 0.208,0.98144 0.16114,1.00196 0.11621,1.02734 0.0703,1.0498 0.0244,1.07618 -0.0107,0.68554 -0.0322,0.68848 -0.0527,0.68066 -0.0732,0.67383 -0.0947,0.66797 -0.11328,0.66406 -0.13672,0.65625 -0.15527,0.65235 -0.17578,0.64257 -0.19824,0.64258 -0.21875,0.63477 -0.23731,0.6289 -0.25977,0.62403 -0.28027,0.61816 -0.30273,0.61524 -0.3125,0.59375 -0.7041,1.17773 -0.75293,1.09961 -0.8086,1.02148 -0.86328,0.95313 -0.91797,0.88086 -0.97656,0.8125 -1.03418,0.74414 -1.10059,0.68359 -0.55273,0.30078 -0.5791,0.29102 -0.58594,0.26953 -0.58984,0.25 -0.59864,0.22852 -0.60547,0.21093 -0.61328,0.19141 -0.61621,0.16992 -0.62793,0.14844 -0.63769,0.12891 -0.64453,0.11328 -0.64942,0.0898 -0.66015,0.0703 -0.6709,0.0508 -0.67774,0.0312 -0.68359,0.01 -0.67676,-0.01 -0.66894,-0.0312 -0.66407,-0.0508 -0.65136,-0.0703 -0.64453,-0.0898 -0.6377,-0.11133 -0.63281,-0.13086 -0.6211,-0.14844 -0.61621,-0.16992 -0.61035,-0.19141 -0.60156,-0.20898 -0.59473,-0.23047 -0.59082,-0.25 -0.58398,-0.26953 -0.57617,-0.29102 -0.55567,-0.30273 -1.11914,-0.68555 -1.04394,-0.74609 -0.98438,-0.8125 -0.9248,-0.87891 -0.86817,-0.95117 -0.81055,-1.02344 -0.75488,-1.0957 -0.7041,-1.17969 -0.31934,-0.59863 -0.30371,-0.61328 -0.28222,-0.61816 -0.26172,-0.62403 -0.24024,-0.62793 -0.21875,-0.63281 -0.19824,-0.64063 -0.17578,-0.64453 -0.1582,-0.65332 -0.13575,-0.65429 -0.11425,-0.66211 -0.0937,-0.66895 -0.0742,-0.67383 -0.0508,-0.67871 -0.0312,-0.68261 z m 154.28125,-31.61817 c -4.6211,0 -10.78028,1.11328 -14.74121,3.39942 -4.00586,2.31445 -6.90723,5.47753 -8.62598,9.40136 -1.69238,3.8711 -2.51465,9.66797 -2.51465,17.72364 v 30.72558 h 10.45117 v -28.59863 c 0,-6.4209 0.27149,-10.73535 0.80664,-12.8252 0.8086,-3.43164 2.31055,-5.75195 4.59961,-7.12402 2.375,-1.42383 5.1836,-2.60156 10.02149,-2.60156 4.83691,0 7.59082,1.18652 9.96582,2.61035 2.28906,1.37109 3.79101,3.69238 4.59961,7.12402 0.53515,2.08985 0.80664,6.4043 0.80664,12.82422 v 28.59961 h 10.45117 v -30.72559 c 0,-8.05566 -0.82227,-13.85253 -2.51465,-17.72363 -1.71875,-3.92383 -4.62012,-7.08691 -8.62597,-9.40137 -3.96094,-2.28711 -10.0586,-3.4082 -14.67969,-3.4082 z"
   id="path70" />

		</g>

	</g>
  </g>
</svg>
