<svg width="86" height="88" viewBox="0 0 86 88" fill="none" xmlns="http://www.w3.org/2000/svg">
<g clip-path="url(#clip0_12668_34730)">
<path d="M39.5382 0.581055C60.2667 23.5457 75.9904 50.5721 85.7094 79.942L64.5385 86.9478C55.7913 60.5149 41.6401 36.1912 22.9844 15.523L39.5382 0.581055Z" fill="url(#paint0_radial_12668_34730)"/>
<g filter="url(#filter0_d_12668_34730)">
<path d="M39.538 0.581055C60.2665 23.5457 75.9902 50.5721 85.7092 79.942L78.2993 82.394C68.9205 54.0521 53.7472 27.9716 33.7441 5.81074L39.538 0.581055Z" fill="#E23F3F"/>
</g>
<g filter="url(#filter1_d_12668_34730)">
<path fill-rule="evenodd" clip-rule="evenodd" d="M23.3779 76.9252H41.6229L43.7754 52.3252H21.2254L23.3779 76.9252ZM40.7004 47.2002V45.1502C40.7004 44.3347 40.3764 43.5525 39.7997 42.9758C39.2231 42.3992 38.4409 42.0752 37.6254 42.0752H27.3754C26.5598 42.0752 25.7777 42.3992 25.201 42.9758C24.6244 43.5525 24.3004 44.3347 24.3004 45.1502V47.2002H18.1504V50.2752H46.8504V47.2002H40.7004ZM37.6254 47.2002H27.3754V46.1752C27.3754 45.9033 27.4834 45.6426 27.6756 45.4504C27.8678 45.2582 28.1285 45.1502 28.4004 45.1502H36.6004C36.8722 45.1502 37.1329 45.2582 37.3252 45.4504C37.5174 45.6426 37.6254 45.9033 37.6254 46.1752V47.2002Z" fill="#E23F3F"/>
</g>
</g>
<defs>
<filter id="filter0_d_12668_34730" x="31.5579" y="0.581055" width="56.3374" height="86.1855" filterUnits="userSpaceOnUse" color-interpolation-filters="sRGB">
<feFlood flood-opacity="0" result="BackgroundImageFix"/>
<feColorMatrix in="SourceAlpha" type="matrix" values="0 0 0 0 0 0 0 0 0 0 0 0 0 0 0 0 0 0 127 0" result="hardAlpha"/>
<feOffset dy="2.18627"/>
<feGaussianBlur stdDeviation="1.09314"/>
<feColorMatrix type="matrix" values="0 0 0 0 0 0 0 0 0 0 0 0 0 0 0 0 0 0 1 0"/>
<feBlend mode="normal" in2="BackgroundImageFix" result="effect1_dropShadow_12668_34730"/>
<feBlend mode="normal" in="SourceGraphic" in2="effect1_dropShadow_12668_34730" result="shape"/>
</filter>
<filter id="filter1_d_12668_34730" x="15.1504" y="39.0752" width="34.6992" height="40.8501" filterUnits="userSpaceOnUse" color-interpolation-filters="sRGB">
<feFlood flood-opacity="0" result="BackgroundImageFix"/>
<feColorMatrix in="SourceAlpha" type="matrix" values="0 0 0 0 0 0 0 0 0 0 0 0 0 0 0 0 0 0 127 0" result="hardAlpha"/>
<feOffset/>
<feGaussianBlur stdDeviation="1.5"/>
<feColorMatrix type="matrix" values="0 0 0 0 0 0 0 0 0 0 0 0 0 0 0 0 0 0 1 0"/>
<feBlend mode="normal" in2="BackgroundImageFix" result="effect1_dropShadow_12668_34730"/>
<feBlend mode="normal" in="SourceGraphic" in2="effect1_dropShadow_12668_34730" result="shape"/>
</filter>
<radialGradient id="paint0_radial_12668_34730" cx="0" cy="0" r="1" gradientUnits="userSpaceOnUse" gradientTransform="translate(-126.001 150) rotate(-30) scale(223 223)">
<stop offset="0.900635" stop-color="#E23F3F" stop-opacity="0"/>
<stop offset="1" stop-color="#E23F3F" stop-opacity="0.4"/>
</radialGradient>
<clipPath id="clip0_12668_34730">
<rect width="86" height="88" fill="white"/>
</clipPath>
</defs>
</svg>
