<svg width="86" height="88" viewBox="0 0 86 88" fill="none" xmlns="http://www.w3.org/2000/svg">
<g clip-path="url(#clip0_12668_34708)">
<path d="M46.4622 85.4185C25.7337 62.4539 10.01 35.4275 0.291016 6.0576L21.4619 -0.948242C30.2091 25.4846 44.3603 49.8084 63.016 70.4766L46.4622 85.4185Z" fill="url(#paint0_radial_12668_34708)"/>
<g filter="url(#filter0_d_12668_34708)">
<path d="M46.4622 85.4184C25.7337 62.4538 10.01 35.4274 0.291016 6.05752L7.70085 3.60547C17.0797 31.9474 32.253 58.0279 52.2561 80.1888L46.4622 85.4184Z" fill="#E23F3F"/>
</g>
<g filter="url(#filter1_d_12668_34708)">
<path fill-rule="evenodd" clip-rule="evenodd" d="M69.3883 14.8148L65.1858 10.6123L53.5008 22.3998L41.8158 10.6123L37.6133 14.8148L49.4008 26.4998L37.6133 38.1848L41.8158 42.3873L53.5008 30.5998L65.1858 42.3873L69.3883 38.1848L57.6008 26.4998L69.3883 14.8148Z" fill="#E23F3F"/>
</g>
</g>
<defs>
<filter id="filter0_d_12668_34708" x="-1.89526" y="3.60547" width="56.3374" height="86.1855" filterUnits="userSpaceOnUse" color-interpolation-filters="sRGB">
<feFlood flood-opacity="0" result="BackgroundImageFix"/>
<feColorMatrix in="SourceAlpha" type="matrix" values="0 0 0 0 0 0 0 0 0 0 0 0 0 0 0 0 0 0 127 0" result="hardAlpha"/>
<feOffset dy="2.18627"/>
<feGaussianBlur stdDeviation="1.09314"/>
<feColorMatrix type="matrix" values="0 0 0 0 0 0 0 0 0 0 0 0 0 0 0 0 0 0 1 0"/>
<feBlend mode="normal" in2="BackgroundImageFix" result="effect1_dropShadow_12668_34708"/>
<feBlend mode="normal" in="SourceGraphic" in2="effect1_dropShadow_12668_34708" result="shape"/>
</filter>
<filter id="filter1_d_12668_34708" x="34.6133" y="7.6123" width="37.7754" height="37.7749" filterUnits="userSpaceOnUse" color-interpolation-filters="sRGB">
<feFlood flood-opacity="0" result="BackgroundImageFix"/>
<feColorMatrix in="SourceAlpha" type="matrix" values="0 0 0 0 0 0 0 0 0 0 0 0 0 0 0 0 0 0 127 0" result="hardAlpha"/>
<feOffset/>
<feGaussianBlur stdDeviation="1.5"/>
<feColorMatrix type="matrix" values="0 0 0 0 0 0 0 0 0 0 0 0 0 0 0 0 0 0 1 0"/>
<feBlend mode="normal" in2="BackgroundImageFix" result="effect1_dropShadow_12668_34708"/>
<feBlend mode="normal" in="SourceGraphic" in2="effect1_dropShadow_12668_34708" result="shape"/>
</filter>
<radialGradient id="paint0_radial_12668_34708" cx="0" cy="0" r="1" gradientUnits="userSpaceOnUse" gradientTransform="translate(211.999 -64.0011) rotate(150) scale(223 223)">
<stop offset="0.900635" stop-color="#E23F3F" stop-opacity="0"/>
<stop offset="1" stop-color="#E23F3F" stop-opacity="0.4"/>
</radialGradient>
<clipPath id="clip0_12668_34708">
<rect width="86" height="88" fill="white"/>
</clipPath>
</defs>
</svg>
