<svg width="86" height="88" viewBox="0 0 86 88" fill="none" xmlns="http://www.w3.org/2000/svg">
<g clip-path="url(#clip0_12668_34716)">
<path d="M39.5382 0.581055C60.2667 23.5457 75.9904 50.5721 85.7094 79.942L64.5385 86.9478C55.7913 60.5149 41.6401 36.1912 22.9844 15.523L39.5382 0.581055Z" fill="url(#paint0_radial_12668_34716)"/>
<g filter="url(#filter0_d_12668_34716)">
<path d="M39.538 0.581055C60.2665 23.5457 75.9902 50.5721 85.7092 79.942L78.2993 82.394C68.9205 54.0521 53.7472 27.9716 33.7441 5.81074L39.538 0.581055Z" fill="#6EC64F"/>
</g>
<g filter="url(#filter1_d_12668_34716)">
<path fill-rule="evenodd" clip-rule="evenodd" d="M47.9779 45.1499L27.3754 65.6941L16.8179 56.0931L13.0254 60.429L27.6829 73.8499L27.7854 73.7467L51.9754 48.9697L47.9779 45.1499Z" fill="#6EC64F"/>
</g>
</g>
<defs>
<filter id="filter0_d_12668_34716" x="31.5579" y="0.581055" width="56.3374" height="86.1855" filterUnits="userSpaceOnUse" color-interpolation-filters="sRGB">
<feFlood flood-opacity="0" result="BackgroundImageFix"/>
<feColorMatrix in="SourceAlpha" type="matrix" values="0 0 0 0 0 0 0 0 0 0 0 0 0 0 0 0 0 0 127 0" result="hardAlpha"/>
<feOffset dy="2.18627"/>
<feGaussianBlur stdDeviation="1.09314"/>
<feColorMatrix type="matrix" values="0 0 0 0 0 0 0 0 0 0 0 0 0 0 0 0 0 0 1 0"/>
<feBlend mode="normal" in2="BackgroundImageFix" result="effect1_dropShadow_12668_34716"/>
<feBlend mode="normal" in="SourceGraphic" in2="effect1_dropShadow_12668_34716" result="shape"/>
</filter>
<filter id="filter1_d_12668_34716" x="10.0254" y="42.1499" width="44.9492" height="34.7002" filterUnits="userSpaceOnUse" color-interpolation-filters="sRGB">
<feFlood flood-opacity="0" result="BackgroundImageFix"/>
<feColorMatrix in="SourceAlpha" type="matrix" values="0 0 0 0 0 0 0 0 0 0 0 0 0 0 0 0 0 0 127 0" result="hardAlpha"/>
<feOffset/>
<feGaussianBlur stdDeviation="1.5"/>
<feColorMatrix type="matrix" values="0 0 0 0 0 0 0 0 0 0 0 0 0 0 0 0 0 0 1 0"/>
<feBlend mode="normal" in2="BackgroundImageFix" result="effect1_dropShadow_12668_34716"/>
<feBlend mode="normal" in="SourceGraphic" in2="effect1_dropShadow_12668_34716" result="shape"/>
</filter>
<radialGradient id="paint0_radial_12668_34716" cx="0" cy="0" r="1" gradientUnits="userSpaceOnUse" gradientTransform="translate(-126.001 150.001) rotate(-30) scale(223 223)">
<stop offset="0.900635" stop-color="#6EC64F" stop-opacity="0"/>
<stop offset="1" stop-color="#6EC64F" stop-opacity="0.4"/>
</radialGradient>
<clipPath id="clip0_12668_34716">
<rect width="86" height="88" fill="white"/>
</clipPath>
</defs>
</svg>
