<svg width="45" height="45" viewBox="0 0 45 45" fill="none" xmlns="http://www.w3.org/2000/svg">
<g filter="url(#filter0_d_12618_21999)">
<path d="M22.5008 39.9248C25.9471 39.9248 29.3161 38.9028 32.1816 36.9882C35.0471 35.0735 37.2805 32.3521 38.5994 29.1681C39.9182 25.9841 40.2633 22.4805 39.591 19.1004C38.9186 15.7202 37.259 12.6154 34.8221 10.1785C32.3852 7.74154 29.2803 6.08197 25.9002 5.40962C22.5201 4.73727 19.0165 5.08235 15.8325 6.4012C12.6485 7.72006 9.9271 9.95347 8.01242 12.819C6.09773 15.6845 5.07578 19.0535 5.07578 22.4998C5.07578 27.1212 6.91162 31.5533 10.1794 34.8211C13.4473 38.089 17.8794 39.9248 22.5008 39.9248V39.9248ZM24.274 32.7498H20.789L20.789 18.7627H24.274V32.7498ZM22.4782 12.2314C22.8204 12.2418 23.1519 12.3529 23.4314 12.5506C23.7108 12.7483 23.9258 13.024 24.0496 13.3431C24.1733 13.6623 24.2003 14.0109 24.1272 14.3453C24.0541 14.6797 23.884 14.9852 23.6384 15.2236C23.3927 15.462 23.0822 15.6227 22.7457 15.6858C22.4093 15.7488 22.0617 15.7113 21.7464 15.578C21.4311 15.4447 21.162 15.2215 20.9728 14.9362C20.7836 14.6509 20.6826 14.3162 20.6824 13.9739C20.6894 13.505 20.8823 13.0581 21.2187 12.7314C21.555 12.4046 22.0073 12.2248 22.4762 12.2314H22.4782Z" fill="white"/>
</g>
<defs>
<filter id="filter0_d_12618_21999" x="2.07617" y="2.07471" width="40.8496" height="40.8501" filterUnits="userSpaceOnUse" color-interpolation-filters="sRGB">
<feFlood flood-opacity="0" result="BackgroundImageFix"/>
<feColorMatrix in="SourceAlpha" type="matrix" values="0 0 0 0 0 0 0 0 0 0 0 0 0 0 0 0 0 0 127 0" result="hardAlpha"/>
<feOffset/>
<feGaussianBlur stdDeviation="1.5"/>
<feColorMatrix type="matrix" values="0 0 0 0 0 0 0 0 0 0 0 0 0 0 0 0 0 0 1 0"/>
<feBlend mode="normal" in2="BackgroundImageFix" result="effect1_dropShadow_12618_21999"/>
<feBlend mode="normal" in="SourceGraphic" in2="effect1_dropShadow_12618_21999" result="shape"/>
</filter>
</defs>
</svg>
