<svg width="45" height="45" viewBox="0 0 45 45" fill="none" xmlns="http://www.w3.org/2000/svg">
<g filter="url(#filter0_d_12618_22005)">
<path fill-rule="evenodd" clip-rule="evenodd" d="M40.695 36.034L24.1717 7.09742C24.0163 6.79699 23.7809 6.54501 23.4912 6.36908C23.2015 6.19316 22.8689 6.1001 22.5296 6.1001C22.1904 6.1001 21.8577 6.19316 21.5681 6.36908C21.2784 6.54501 21.043 6.79699 20.8876 7.09742L4.36422 36.034C4.17249 36.3186 4.06435 36.6509 4.05198 36.9934C4.0396 37.336 4.12349 37.6751 4.29418 37.9727C4.46487 38.2704 4.71559 38.5146 5.01809 38.6778C5.32058 38.8411 5.66284 38.917 6.00629 38.8969H39.053L39.9766 38.6924C40.1959 38.5753 40.3892 38.4151 40.5448 38.2217C40.7005 38.0283 40.8153 37.8055 40.8824 37.5668C40.9495 37.3281 40.9674 37.0783 40.9353 36.8325C40.9031 36.5866 40.8214 36.3498 40.695 36.1362V36.034ZM24.5822 35.832H20.477V31.742H24.5822V35.832ZM24.5822 27.6495H20.477V17.4246H24.5822V27.6495Z" fill="white"/>
</g>
<defs>
<filter id="filter0_d_12618_22005" x="1.05078" y="3.1001" width="42.9004" height="38.7998" filterUnits="userSpaceOnUse" color-interpolation-filters="sRGB">
<feFlood flood-opacity="0" result="BackgroundImageFix"/>
<feColorMatrix in="SourceAlpha" type="matrix" values="0 0 0 0 0 0 0 0 0 0 0 0 0 0 0 0 0 0 127 0" result="hardAlpha"/>
<feOffset/>
<feGaussianBlur stdDeviation="1.5"/>
<feColorMatrix type="matrix" values="0 0 0 0 0 0 0 0 0 0 0 0 0 0 0 0 0 0 1 0"/>
<feBlend mode="normal" in2="BackgroundImageFix" result="effect1_dropShadow_12618_22005"/>
<feBlend mode="normal" in="SourceGraphic" in2="effect1_dropShadow_12618_22005" result="shape"/>
</filter>
</defs>
</svg>
