<svg width="45" height="45" viewBox="0 0 45 45" fill="none" xmlns="http://www.w3.org/2000/svg">
<g filter="url(#filter0_d_12618_22002)">
<path fill-rule="evenodd" clip-rule="evenodd" d="M18.7305 6.1001C11.7546 6.1001 6.09961 11.7551 6.09961 18.731C6.09961 25.7068 11.7546 31.3618 18.7305 31.3618C21.6327 31.3618 24.3063 30.383 26.4392 28.7375L36.4814 38.5123L38.9837 35.9415L28.9417 26.1669C30.4634 24.0808 31.3614 21.5108 31.3614 18.731C31.3614 11.7551 25.7063 6.1001 18.7305 6.1001ZM9.68711 18.731C9.68711 13.7365 13.736 9.6876 18.7305 9.6876C23.725 9.6876 27.7738 13.7365 27.7738 18.731C27.7738 23.7255 23.725 27.7743 18.7305 27.7743C13.736 27.7743 9.68711 23.7255 9.68711 18.731Z" fill="white"/>
</g>
<defs>
<filter id="filter0_d_12618_22002" x="3.09961" y="3.1001" width="38.8848" height="38.4121" filterUnits="userSpaceOnUse" color-interpolation-filters="sRGB">
<feFlood flood-opacity="0" result="BackgroundImageFix"/>
<feColorMatrix in="SourceAlpha" type="matrix" values="0 0 0 0 0 0 0 0 0 0 0 0 0 0 0 0 0 0 127 0" result="hardAlpha"/>
<feOffset/>
<feGaussianBlur stdDeviation="1.5"/>
<feColorMatrix type="matrix" values="0 0 0 0 0 0 0 0 0 0 0 0 0 0 0 0 0 0 1 0"/>
<feBlend mode="normal" in2="BackgroundImageFix" result="effect1_dropShadow_12618_22002"/>
<feBlend mode="normal" in="SourceGraphic" in2="effect1_dropShadow_12618_22002" result="shape"/>
</filter>
</defs>
</svg>
