<svg width="45" height="45" viewBox="0 0 45 45" fill="none" xmlns="http://www.w3.org/2000/svg">
<g clip-path="url(#clip0_12618_22001)">
<g filter="url(#filter0_d_12618_22001)">
<path d="M9.41154 22.0396H2L11.2565 31.2962L20.5131 22.0396H13.1015C13.1015 19.8427 13.753 17.6951 14.9735 15.8684C16.1941 14.0418 17.9289 12.618 19.9586 11.7773C21.9883 10.9366 24.2217 10.7166 26.3764 11.1452C28.5311 11.5738 30.5104 12.6317 32.0638 14.1852C33.6173 15.7387 34.6752 17.7179 35.1038 19.8726C35.5324 22.0273 35.3124 24.2607 34.4717 26.2904C33.631 28.3201 32.2073 30.0549 30.3806 31.2755C28.5539 32.496 26.4063 33.1475 24.2094 33.1475V36.8501C27.1392 36.8526 30.0038 35.9861 32.4411 34.3602C34.8783 32.7343 36.7786 30.4221 37.9015 27.7161C39.0244 25.0101 39.3195 22.0318 38.7494 19.158C38.1794 16.2842 36.7698 13.6441 34.699 11.5715C32.6283 9.49898 29.9893 8.08717 27.116 7.51468C24.2427 6.94219 21.2642 7.23475 18.5572 8.35535C15.8502 9.47594 13.5364 11.3742 11.9084 13.8101C10.2805 16.2459 9.41154 19.1099 9.41154 22.0396Z" fill="white"/>
</g>
</g>
<defs>
<filter id="filter0_d_12618_22001" x="-1" y="4.229" width="43.0332" height="35.6211" filterUnits="userSpaceOnUse" color-interpolation-filters="sRGB">
<feFlood flood-opacity="0" result="BackgroundImageFix"/>
<feColorMatrix in="SourceAlpha" type="matrix" values="0 0 0 0 0 0 0 0 0 0 0 0 0 0 0 0 0 0 127 0" result="hardAlpha"/>
<feOffset/>
<feGaussianBlur stdDeviation="1.5"/>
<feColorMatrix type="matrix" values="0 0 0 0 0 0 0 0 0 0 0 0 0 0 0 0 0 0 1 0"/>
<feBlend mode="normal" in2="BackgroundImageFix" result="effect1_dropShadow_12618_22001"/>
<feBlend mode="normal" in="SourceGraphic" in2="effect1_dropShadow_12618_22001" result="shape"/>
</filter>
<clipPath id="clip0_12618_22001">
<rect width="45" height="45" fill="white"/>
</clipPath>
</defs>
</svg>
