<svg width="45" height="45" viewBox="0 0 45 45" fill="none" xmlns="http://www.w3.org/2000/svg">
<g filter="url(#filter0_d_12618_22006)">
<path fill-rule="evenodd" clip-rule="evenodd" d="M13.3779 39.9252H31.6229L33.7754 15.3252H11.2254L13.3779 39.9252ZM30.7004 10.2002V8.1502C30.7004 7.33465 30.3764 6.55252 29.7997 5.97584C29.2231 5.39917 28.4409 5.0752 27.6254 5.0752H17.3754C16.5598 5.0752 15.7777 5.39917 15.201 5.97584C14.6244 6.55252 14.3004 7.33465 14.3004 8.1502V10.2002H8.15039V13.2752H36.8504V10.2002H30.7004ZM27.6254 10.2002H17.3754V9.1752C17.3754 8.90335 17.4834 8.64264 17.6756 8.45041C17.8678 8.25819 18.1285 8.1502 18.4004 8.1502H26.6004C26.8722 8.1502 27.1329 8.25819 27.3252 8.45041C27.5174 8.64264 27.6254 8.90335 27.6254 9.1752V10.2002Z" fill="white"/>
</g>
<defs>
<filter id="filter0_d_12618_22006" x="5.15039" y="2.0752" width="34.6992" height="40.8501" filterUnits="userSpaceOnUse" color-interpolation-filters="sRGB">
<feFlood flood-opacity="0" result="BackgroundImageFix"/>
<feColorMatrix in="SourceAlpha" type="matrix" values="0 0 0 0 0 0 0 0 0 0 0 0 0 0 0 0 0 0 127 0" result="hardAlpha"/>
<feOffset/>
<feGaussianBlur stdDeviation="1.5"/>
<feColorMatrix type="matrix" values="0 0 0 0 0 0 0 0 0 0 0 0 0 0 0 0 0 0 1 0"/>
<feBlend mode="normal" in2="BackgroundImageFix" result="effect1_dropShadow_12618_22006"/>
<feBlend mode="normal" in="SourceGraphic" in2="effect1_dropShadow_12618_22006" result="shape"/>
</filter>
</defs>
</svg>
