<svg width="45" height="45" viewBox="0 0 45 45" fill="none" xmlns="http://www.w3.org/2000/svg">
<g filter="url(#filter0_d_12618_22004)">
<path fill-rule="evenodd" clip-rule="evenodd" d="M22.5008 4.0498C18.8517 4.0498 15.2846 5.13188 12.2505 7.15919C9.21643 9.1865 6.85165 12.068 5.45521 15.4393C4.05878 18.8106 3.6934 22.5203 4.4053 26.0992C5.1172 29.6782 6.87439 32.9656 9.45467 35.5459C12.0349 38.1262 15.3224 39.8834 18.9014 40.5953C22.4803 41.3072 26.19 40.9418 29.5613 39.5454C32.9326 38.1489 35.8141 35.7842 37.8414 32.7501C39.8687 29.716 40.9508 26.1489 40.9508 22.4998C40.9508 17.6066 39.007 12.9137 35.5469 9.45368C32.0869 5.99364 27.394 4.0498 22.5008 4.0498ZM24.5508 33.7748H20.4508V29.6748H24.5508V33.7748ZM25.5758 22.4998C25.2784 22.6049 25.0205 22.799 24.8371 23.0557C24.6537 23.3125 24.5538 23.6193 24.5508 23.9348C24.5508 24.1398 24.5508 25.3698 24.5508 25.5748H20.4508V23.5248C20.3756 22.8529 20.5399 22.176 20.915 21.6134C21.29 21.0509 21.8516 20.6388 22.5008 20.4498C23.15 20.2608 23.7116 19.8487 24.0866 19.2862C24.4616 18.7236 24.626 18.0467 24.5508 17.3748C24.5508 16.3498 24.5508 15.3248 22.5008 15.3248C20.4508 15.3248 20.4508 15.3248 20.4508 17.3748H16.3508C16.2895 16.5515 16.4066 15.7247 16.694 14.9507C16.9814 14.1768 17.4324 13.474 18.0162 12.8902C18.6 12.3064 19.3028 11.8554 20.0767 11.568C20.8507 11.2806 21.6775 11.1636 22.5008 11.2248C23.3161 11.1962 24.1286 11.3357 24.8878 11.6346C25.6469 11.9335 26.3363 12.3855 26.9132 12.9624C27.4901 13.5393 27.9421 14.2287 28.241 14.9878C28.5399 15.747 28.6794 16.5595 28.6508 17.3748C28.7387 18.4434 28.4893 19.5126 27.9377 20.432C27.3861 21.3513 26.56 22.0746 25.5758 22.4998Z" fill="white"/>
</g>
<defs>
<filter id="filter0_d_12618_22004" x="1.05078" y="1.0498" width="42.9004" height="42.8999" filterUnits="userSpaceOnUse" color-interpolation-filters="sRGB">
<feFlood flood-opacity="0" result="BackgroundImageFix"/>
<feColorMatrix in="SourceAlpha" type="matrix" values="0 0 0 0 0 0 0 0 0 0 0 0 0 0 0 0 0 0 127 0" result="hardAlpha"/>
<feOffset/>
<feGaussianBlur stdDeviation="1.5"/>
<feColorMatrix type="matrix" values="0 0 0 0 0 0 0 0 0 0 0 0 0 0 0 0 0 0 1 0"/>
<feBlend mode="normal" in2="BackgroundImageFix" result="effect1_dropShadow_12618_22004"/>
<feBlend mode="normal" in="SourceGraphic" in2="effect1_dropShadow_12618_22004" result="shape"/>
</filter>
</defs>
</svg>
