<?xml version="1.0" encoding="UTF-8" standalone="no"?>
<svg
   version="1.1"
   x="0px"
   y="0px"
   viewBox="0 0 218.22816 138.57728"
   xml:space="preserve"
   id="svg8"
   sodipodi:docname="arrows.svg"
   width="218.22816"
   height="138.57729"
   inkscape:version="1.4.2 (f4327f4, 2025-05-13)"
   xmlns:inkscape="http://www.inkscape.org/namespaces/inkscape"
   xmlns:sodipodi="http://sodipodi.sourceforge.net/DTD/sodipodi-0.dtd"
   xmlns="http://www.w3.org/2000/svg"
   xmlns:svg="http://www.w3.org/2000/svg"><defs
     id="defs8" /><sodipodi:namedview
     id="namedview8"
     pagecolor="#ffffff"
     bordercolor="#000000"
     borderopacity="0.25"
     inkscape:showpageshadow="2"
     inkscape:pageopacity="0.0"
     inkscape:pagecheckerboard="0"
     inkscape:deskcolor="#d1d1d1"
     inkscape:zoom="3.9"
     inkscape:cx="108.97436"
     inkscape:cy="45.25641"
     inkscape:window-width="1920"
     inkscape:window-height="1111"
     inkscape:window-x="-9"
     inkscape:window-y="-9"
     inkscape:window-maximized="1"
     inkscape:current-layer="svg8" /><g
     id="g2"
     transform="translate(61.74359,-2.156319)"><path
       d="m 154.28458,76.20402 c 1.5,-1.5 2.2,-3.4 2.2,-5.3 0,-1.9 -0.7,-3.9 -2.2,-5.3 l -40,-40 c -3,-3 -7.7,-3 -10.7,0 -3,3 -3,7.7 0,10.7 l 34.6,34.6 -34.6,34.6 c -3,3 -3,7.7 0,10.7 3,3 7.7,3 10.7,0 z"
       id="path5-94"
       style="fill:#000000;fill-opacity:1" /><path
       d="m -59.54359,66.685897 c -1.5,1.5 -2.2,3.4 -2.2,5.3 0,1.9 0.7,3.9 2.2,5.3 l 40,40.000003 c 3,3 7.7,3 10.7000003,0 3,-3 3,-7.7 0,-10.7 L -43.44359,71.985897 l 34.6000003,-34.6 c 3,-3 3,-7.7 0,-10.7 -3.0000003,-3 -7.7000003,-3 -10.7000003,0 z"
       id="path5-94-8"
       style="fill:#000000;fill-opacity:1" /></g><g
     id="g1"
     transform="translate(61.564086,-3.230769)"><path
       d="m 52.849999,5.430769 c -1.5,-1.5 -3.4,-2.2 -5.3,-2.2 -1.9,0 -3.9,0.7 -5.3,2.2 l -39.9999998,40 c -2.99999993,3 -2.99999993,7.7 0,10.7 3,3 7.7,3 10.6999998,0 l 34.6,-34.6 34.6,34.6 c 3,3 7.7,3 10.7,0 3,-3 3,-7.7 0,-10.7 z"
       id="path5"
       style="fill:#000000;fill-opacity:1" /><path
       d="m 42.249999,139.60805 c 1.5,1.5 3.4,2.2 5.3,2.2 1.9,0 3.9,-0.7 5.3,-2.2 l 39.999999,-40 c 3,-3 3,-7.7 0,-10.7 -3,-3 -7.7,-3 -10.7,0 l -34.599999,34.6 -34.6,-34.6 c -2.9999988,-3 -7.6999988,-3 -10.6999988,0 -2.99999997,3 -2.99999997,7.7 0,10.7 z"
       id="path5-9"
       style="fill:#000000;fill-opacity:1" /></g></svg>
