<?xml version="1.0" encoding="UTF-8" standalone="no"?>
<svg
   version="1.1"
   x="0px"
   y="0px"
   viewBox="0 0 53.551448 80.000288"
   xml:space="preserve"
   id="svg12"
   sodipodi:docname="light-bulb-off.svg"
   width="53.551449"
   height="80.00029"
   inkscape:version="1.4-beta (62f545ba5e, 2024-04-22)"
   xmlns:inkscape="http://www.inkscape.org/namespaces/inkscape"
   xmlns:sodipodi="http://sodipodi.sourceforge.net/DTD/sodipodi-0.dtd"
   xmlns="http://www.w3.org/2000/svg"
   xmlns:svg="http://www.w3.org/2000/svg"><defs
     id="defs12" /><sodipodi:namedview
     id="namedview12"
     pagecolor="#ffffff"
     bordercolor="#000000"
     borderopacity="0.25"
     inkscape:showpageshadow="2"
     inkscape:pageopacity="0.0"
     inkscape:pagecheckerboard="0"
     inkscape:deskcolor="#d1d1d1"
     inkscape:zoom="6.856"
     inkscape:cx="19.471995"
     inkscape:cy="37.995916"
     inkscape:window-width="1920"
     inkscape:window-height="1111"
     inkscape:window-x="-9"
     inkscape:window-y="-9"
     inkscape:window-maximized="1"
     inkscape:current-layer="svg12" /><path
     d="M 27.98636,0.02467035 C 20.63228,-0.28174965 13.58462,2.2717504 8.27334,7.3787504 2.96206,12.48575 0,19.32913 0,26.68321 c 0,6.02626 1.94066,11.7461 5.71984,16.54668 3.26848,4.18774 5.51556,8.1712 6.94552,12.35894 l 0.10214,0.30642 v 10.7247 c 0,1.32782 1.0214,2.5535 2.34922,2.75778 0.5107,5.92412 5.51556,10.62256 11.64396,10.62256 6.1284,0 11.13326,-4.69844 11.64396,-10.7247 1.32782,-0.20428 2.34922,-1.32782 2.34922,-2.75778 V 55.89525 L 40.856,55.58883 c 1.42996,-4.18774 3.67704,-8.1712 6.94552,-12.2568 3.98346,-5.00486 6.02626,-11.33754 5.71984,-17.67022 C 52.80638,11.87291 41.67312,0.63751035 27.98636,0.02467035 Z M 35.13616,57.01879 v 6.74124 H 18.3852 v -6.74124 z m -8.37548,17.3638 c -3.0642,0 -5.51556,-2.24708 -6.02626,-5.107 h 12.05252 c -0.5107,2.96206 -2.96206,5.107 -6.02626,5.107 z M 43.30736,39.75713 c -3.0642,3.88132 -5.31128,7.6605 -6.94552,11.64396 H 17.15952 C 15.52528,47.51977 13.2782,43.63845 10.214,39.75713 7.25194,35.97795 5.71984,31.48379 5.71984,26.68321 c 0,-5.82198 2.34922,-11.2354 6.53696,-15.321 4.18774,-3.9834596 9.7033,-6.1283996 15.62742,-5.8219796 10.82684,0.5107 19.61088,9.3968796 20.12158,20.1215796 0.10214,5.20914 -1.5321,10.11186 -4.69844,14.09532 z"
     id="path1"
     style="fill:#000000;fill-opacity:1;stroke-width:1.0214" /></svg>
