<?xml version="1.0" encoding="UTF-8" standalone="no"?>
<svg
   version="1.1"
   x="0px"
   y="0px"
   viewBox="0 0 87.431837 97.032995"
   xml:space="preserve"
   id="svg12"
   sodipodi:docname="light-bulb-on.svg"
   width="87.431839"
   height="97.032997"
   inkscape:version="1.4-beta (62f545ba5e, 2024-04-22)"
   xmlns:inkscape="http://www.inkscape.org/namespaces/inkscape"
   xmlns:sodipodi="http://sodipodi.sourceforge.net/DTD/sodipodi-0.dtd"
   xmlns="http://www.w3.org/2000/svg"
   xmlns:svg="http://www.w3.org/2000/svg"><defs
     id="defs12" /><sodipodi:namedview
     id="namedview12"
     pagecolor="#ffffff"
     bordercolor="#000000"
     borderopacity="0.25"
     inkscape:showpageshadow="2"
     inkscape:pageopacity="0.0"
     inkscape:pagecheckerboard="0"
     inkscape:deskcolor="#d1d1d1"
     inkscape:zoom="6.856"
     inkscape:cx="36.391482"
     inkscape:cy="55.06126"
     inkscape:window-width="1920"
     inkscape:window-height="1111"
     inkscape:window-x="-9"
     inkscape:window-y="-9"
     inkscape:window-maximized="1"
     inkscape:current-layer="svg12" /><g
     id="g10"
     transform="matrix(1.0214,0,0,1.0214,-7.35408,-0.5107)"
     style="fill:#000000;fill-opacity:1"><path
       d="m 51.2,17.2 c -7.2,-0.3 -14.1,2.2 -19.3,7.2 -5.2,5 -8.1,11.7 -8.1,18.9 0,5.9 1.9,11.5 5.6,16.2 3.2,4.1 5.4,8 6.8,12.1 l 0.1,0.3 v 10.5 c 0,1.3 1,2.5 2.3,2.7 0.5,5.8 5.4,10.4 11.4,10.4 6,0 10.9,-4.6 11.4,-10.5 1.3,-0.2 2.3,-1.3 2.3,-2.7 V 71.9 l 0.1,-0.3 c 1.4,-4.1 3.6,-8 6.8,-12 3.9,-4.9 5.9,-11.1 5.6,-17.3 C 75.5,28.8 64.6,17.8 51.2,17.2 Z m 7,55.8 v 6.6 H 41.8 V 73 Z M 50,90 c -3,0 -5.4,-2.2 -5.9,-5 H 55.9 C 55.4,87.9 53,90 50,90 Z M 66.2,56.1 c -3,3.8 -5.2,7.5 -6.8,11.4 H 40.6 C 39,63.7 36.8,59.9 33.8,56.1 30.9,52.4 29.4,48 29.4,43.3 c 0,-5.7 2.3,-11 6.4,-15 4.1,-3.9 9.5,-6 15.3,-5.7 10.6,0.5 19.2,9.2 19.7,19.7 0.1,5.1 -1.5,9.9 -4.6,13.8 z"
       id="path1"
       style="fill:#000000;fill-opacity:1" /><path
       d="m 50,11 c 1.5,0 2.7,-1.2 2.7,-2.7 V 3.2 c 0,-1.5 -1.2,-2.7 -2.7,-2.7 -1.5,0 -2.7,1.2 -2.7,2.7 v 5.1 c 0,1.5 1.2,2.7 2.7,2.7 z"
       id="path2"
       style="fill:#000000;fill-opacity:1" /><path
       d="m 30.1,14.4 c 0.5,0.9 1.4,1.4 2.4,1.4 0.5,0 0.9,-0.1 1.4,-0.4 1.3,-0.8 1.8,-2.4 1,-3.7 L 32.4,7.3 C 31.6,6 30,5.5 28.7,6.3 27.4,7.1 26.9,8.7 27.7,10 Z"
       id="path3"
       style="fill:#000000;fill-opacity:1" /><path
       d="m 21,23.4 -4.4,-2.5 c -1.3,-0.8 -3,-0.3 -3.7,1 -0.8,1.3 -0.3,3 1,3.7 l 4.4,2.5 c 0.4,0.2 0.9,0.4 1.4,0.4 0.9,0 1.9,-0.5 2.4,-1.4 0.7,-1.2 0.2,-2.9 -1.1,-3.7 z"
       id="path4"
       style="fill:#000000;fill-opacity:1" /><path
       d="m 17.7,43.3 c 0,-1.5 -1.2,-2.7 -2.7,-2.7 H 9.9 c -1.5,0 -2.7,1.2 -2.7,2.7 0,1.5 1.2,2.7 2.7,2.7 H 15 c 1.5,0.1 2.7,-1.2 2.7,-2.7 z"
       id="path5"
       style="fill:#000000;fill-opacity:1" /><path
       d="M 18.3,58.5 13.9,61 c -1.3,0.8 -1.8,2.4 -1,3.7 0.5,0.9 1.4,1.4 2.4,1.4 0.5,0 0.9,-0.1 1.4,-0.4 l 4.4,-2.5 c 1.3,-0.8 1.8,-2.4 1,-3.7 -0.8,-1.3 -2.5,-1.8 -3.8,-1 z"
       id="path6"
       style="fill:#000000;fill-opacity:1" /><path
       d="m 86.1,61 -4.4,-2.5 c -1.3,-0.8 -3,-0.3 -3.7,1 -0.8,1.3 -0.3,3 1,3.7 l 4.4,2.5 c 0.4,0.2 0.9,0.4 1.4,0.4 0.9,0 1.9,-0.5 2.4,-1.4 0.6,-1.3 0.2,-2.9 -1.1,-3.7 z"
       id="path7"
       style="fill:#000000;fill-opacity:1" /><path
       d="M 90.1,40.6 H 85 c -1.5,0 -2.7,1.2 -2.7,2.7 0,1.5 1.2,2.7 2.7,2.7 h 5.1 c 1.5,0 2.7,-1.2 2.7,-2.7 0,-1.5 -1.2,-2.7 -2.7,-2.7 z"
       id="path8"
       style="fill:#000000;fill-opacity:1" /><path
       d="m 80.3,28.5 c 0.5,0 0.9,-0.1 1.4,-0.4 l 4.4,-2.5 c 1.3,-0.8 1.8,-2.4 1,-3.7 -0.8,-1.3 -2.4,-1.8 -3.7,-1 L 79,23.4 c -1.3,0.8 -1.8,2.4 -1,3.7 0.5,1 1.4,1.4 2.3,1.4 z"
       id="path9"
       style="fill:#000000;fill-opacity:1" /><path
       d="m 66.1,15.4 c 0.4,0.2 0.9,0.4 1.4,0.4 0.9,0 1.9,-0.5 2.4,-1.4 L 72.4,10 c 0.8,-1.3 0.3,-3 -1,-3.7 -1.3,-0.8 -3,-0.3 -3.7,1 l -2.5,4.4 c -0.8,1.2 -0.4,2.9 0.9,3.7 z"
       id="path10"
       style="fill:#000000;fill-opacity:1" /></g></svg>
