<?xml version="1.0" encoding="UTF-8" standalone="no"?>
<svg
   version="1.1"
   x="0px"
   y="0px"
   viewBox="0 0 95.099998 141.80804"
   xml:space="preserve"
   id="svg8"
   sodipodi:docname="up.svg"
   width="95.099998"
   height="141.80804"
   inkscape:version="1.4.2 (f4327f4, 2025-05-13)"
   xmlns:inkscape="http://www.inkscape.org/namespaces/inkscape"
   xmlns:sodipodi="http://sodipodi.sourceforge.net/DTD/sodipodi-0.dtd"
   xmlns="http://www.w3.org/2000/svg"
   xmlns:svg="http://www.w3.org/2000/svg"><defs
     id="defs8" /><sodipodi:namedview
     id="namedview8"
     pagecolor="#ffffff"
     bordercolor="#000000"
     borderopacity="0.25"
     inkscape:showpageshadow="2"
     inkscape:pageopacity="0.0"
     inkscape:pagecheckerboard="0"
     inkscape:deskcolor="#d1d1d1"
     inkscape:zoom="6.808"
     inkscape:cx="47.517626"
     inkscape:cy="46.783196"
     inkscape:window-width="1920"
     inkscape:window-height="1111"
     inkscape:window-x="-9"
     inkscape:window-y="-9"
     inkscape:window-maximized="1"
     inkscape:current-layer="svg8" /><path
     d="M 52.85,2.2 C 51.35,0.7 49.45,0 47.55,0 c -1.9,0 -3.9,0.7 -5.3,2.2 l -40,40 c -2.99999998,3 -2.99999998,7.7 0,10.7 3,3 7.7,3 10.7,0 l 34.6,-34.6 34.6,34.6 c 3,3 7.7,3 10.7,0 3,-3 3,-7.7 0,-10.7 z"
     id="path5"
     style="fill:#000000;fill-opacity:1" /><path
     d="m 42.249999,139.60805 c 1.5,1.5 3.4,2.2 5.3,2.2 1.9,0 3.9,-0.7 5.3,-2.2 L 92.849998,99.608049 c 3,-3 3,-7.7 0,-10.7 -3,-3 -7.7,-3 -10.7,0 l -34.599999,34.600001 -34.6,-34.600001 c -2.999999,-3 -7.699999,-3 -10.699999,0 -3.00000001,3 -3.00000001,7.7 0,10.7 z"
     id="path5-9"
     style="fill:#000000;fill-opacity:1" /></svg>
